<?xml version="1.0" encoding="utf-8"?>
<!-- Generator: Adobe Illustrator 23.0.5, SVG Export Plug-In . SVG Version: 6.00 Build 0)  -->
<svg version="1.1" id="Layer_1" xmlns="http://www.w3.org/2000/svg" xmlns:xlink="http://www.w3.org/1999/xlink" x="0px" y="0px"
	 viewBox="0 0 125 101" style="enable-background:new 0 0 125 101;" xml:space="preserve">
<style type="text/css">
	.st0{fill:#263238;}
	.st1{fill:none;}
	.st2{fill:#FF725E;}
	.st3{fill:#407BFF;}
</style>
<g>
	<path class="st0" d="M94.6,53.09c9.72-9.07,10.25-24.31,1.18-34.03S71.47,8.8,61.75,17.87c-8.15,7.61-10.02,19.81-4.51,29.51
		l-4.9,4.57l1.18,8.13L45.91,58l-6.13,5.72L41,71.8l-7.6-2.13l-5.27,4.91l0.72,5l-4.64-1.3l-3.06,2.86l-0.46,7.53l11.23,2.83
		l36.45-34C77.21,61.43,87.53,59.69,94.6,53.09z M91,23.48c2.6,2.79,2.46,7.16-0.33,9.77c-2.79,2.6-7.16,2.46-9.77-0.33
		s-2.46-7.16,0.33-9.77c0,0,0,0,0.01-0.01C84.03,20.54,88.4,20.69,91,23.48z"/>
	<path class="st1" d="M94.6,53.09c9.72-9.07,10.25-24.31,1.18-34.03S71.47,8.8,61.75,17.87c-8.15,7.61-10.02,19.81-4.51,29.51
		l-4.9,4.57l1.18,8.13L45.91,58l-6.13,5.72L41,71.8l-7.6-2.13l-5.27,4.91l0.72,5l-4.64-1.3l-3.06,2.86l-0.46,7.53l11.23,2.83
		l36.45-34C77.21,61.43,87.53,59.69,94.6,53.09z M91,23.48c2.6,2.79,2.46,7.16-0.33,9.77c-2.79,2.6-7.16,2.46-9.77-0.33
		s-2.46-7.16,0.33-9.77c0,0,0,0,0.01-0.01C84.03,20.54,88.4,20.69,91,23.48z"/>
	<path class="st0" d="M91,23.48c0,0-0.45-0.42-1.37-1c-1.31-0.78-2.84-1.12-4.35-0.95c-3.65,0.39-6.29,3.67-5.9,7.33
		s3.67,6.29,7.33,5.9c2.94-0.32,5.31-2.53,5.83-5.44c0.28-1.5,0.05-3.05-0.65-4.4c-0.5-1-0.94-1.4-0.89-1.44s0.13,0.09,0.33,0.3
		c0.29,0.3,0.55,0.64,0.77,1c0.81,1.38,1.12,3,0.86,4.58c-0.62,3.88-4.26,6.52-8.14,5.91c-0.07-0.01-0.14-0.02-0.21-0.04
		c-3.09-0.57-5.45-3.09-5.8-6.22c-0.46-3.9,2.32-7.44,6.22-7.9c0.07-0.01,0.14-0.02,0.21-0.02c1.6-0.15,3.2,0.27,4.52,1.18
		c0.37,0.23,0.7,0.51,1,0.83C91,23.35,91.06,23.47,91,23.48z"/>
	<path class="st0" d="M94.6,53.09c0,0-0.11,0.12-0.35,0.33l-1.06,1c-1.44,1.17-3,2.18-4.66,3c-6.39,3.06-13.81,3.17-20.29,0.29h0.2
		L32.05,91.77l-0.1,0.11H31.8l-11.23-2.82l-0.23-0.05v-0.24c0.14-2.35,0.29-4.92,0.45-7.53V81l0.08-0.08L24,78l0.11-0.11h0.16
		l4.64,1.3l-0.37,0.32c-0.23-1.55-0.47-3.25-0.72-5v-0.15l0.11-0.1l5.27-4.92l0.12-0.12h0.16l7.6,2.13l-0.37,0.33
		c-0.37-2.58-0.77-5.34-1.17-8.13v-0.16l0.12-0.1l1.62-1.52l4.51-4.2l0.12-0.12h0.16l7.61,2.13l-0.38,0.33
		c-0.39-2.74-0.78-5.45-1.17-8.13v-0.15l0.11-0.11l4.9-4.57l-0.05,0.36c-1.9-3.37-2.97-7.14-3.13-11c-0.09-1.87,0.04-3.74,0.4-5.57
		c0.33-1.8,0.86-3.56,1.6-5.24c5.37-12.3,19.7-17.91,32-12.54c5.26,2.3,9.54,6.39,12.07,11.54c1.92,3.92,2.74,8.29,2.37,12.64
		c-0.25,3.24-1.17,6.4-2.7,9.27c-0.15,0.3-0.3,0.58-0.45,0.86l-0.49,0.76c-0.33,0.49-0.6,1-0.92,1.37c-0.65,0.78-1.15,1.48-1.64,2
		L95,52.73L94.6,53.09c0.01,0,0.12-0.14,0.36-0.4l1.08-1.15c0.47-0.5,1-1.21,1.59-2c0.3-0.41,0.56-0.89,0.88-1.37
		c0.16-0.25,0.32-0.5,0.48-0.77l0.44-0.85c6.08-11.7,1.53-26.11-10.17-32.19s-26.11-1.53-32.19,10.17c-0.25,0.48-0.48,0.97-0.7,1.47
		c-0.71,1.64-1.24,3.36-1.56,5.12c-0.34,1.79-0.47,3.62-0.38,5.44c0.17,3.76,1.22,7.42,3.07,10.7l0.11,0.2l-0.17,0.16l-4.89,4.57
		l0.09-0.26c0.39,2.67,0.78,5.38,1.17,8.14l0.07,0.45l-0.45-0.12l-7.6-2.13l0.29-0.07l-4.51,4.2L40,63.89l0.09-0.27
		c0.4,2.79,0.8,5.56,1.17,8.13l0.07,0.46l-0.45-0.12l-7.6-2.14l0.28-0.07c-1.81,1.7-3.61,3.37-5.27,4.92l0.1-0.26
		c0.24,1.71,0.48,3.41,0.71,5l0.06,0.44l-0.43-0.12l-4.63-1.3l0.27-0.07l-3.07,2.86l0.09-0.19c-0.16,2.61-0.32,5.18-0.46,7.53
		l-0.21-0.29l11.23,2.83L31.7,91.3l36.5-33.94l0.09-0.08h0.11c6.39,2.87,13.71,2.82,20.06-0.14c1.65-0.79,3.22-1.75,4.68-2.86
		l1.09-0.91L94.6,53.09z"/>
	<path class="st2" d="M93.79,50.36c9.72-9.07,10.25-24.3,1.18-34.02s-24.3-10.25-34.02-1.18c-8.15,7.6-10.02,19.8-4.52,29.48l0,0
		l-4.89,4.56l1.17,8.14l-7.6-2.14L39,60.93l1.17,8.13l-7.6-2.13l-5.27,4.92l0.71,5l-4.63-1.29l-3.07,2.86l-0.46,7.53l11.23,2.82
		l36.45-34C76.37,58.72,86.72,56.98,93.79,50.36z M90.23,20.75c2.6,2.79,2.46,7.16-0.33,9.77c-2.79,2.6-7.16,2.46-9.77-0.33
		s-2.46-7.16,0.33-9.77c0,0,0,0,0.01-0.01C83.25,17.81,87.62,17.96,90.23,20.75C90.22,20.74,90.23,20.75,90.23,20.75z"/>
	<path class="st1" d="M93.79,50.36c9.72-9.07,10.25-24.3,1.18-34.02s-24.3-10.25-34.02-1.18c-8.15,7.6-10.02,19.8-4.52,29.48l0,0
		l-4.89,4.56l1.17,8.14l-7.6-2.14L39,60.93l1.17,8.13l-7.6-2.13l-5.27,4.92l0.71,5l-4.63-1.29l-3.07,2.86l-0.46,7.53l11.23,2.82
		l36.45-34C76.37,58.72,86.72,56.98,93.79,50.36z M90.23,20.75c2.6,2.79,2.46,7.16-0.33,9.77c-2.79,2.6-7.16,2.46-9.77-0.33
		s-2.46-7.16,0.33-9.77c0,0,0,0,0.01-0.01C83.25,17.81,87.62,17.96,90.23,20.75C90.22,20.74,90.23,20.75,90.23,20.75z"/>
	<path class="st0" d="M90.23,20.75c0,0-0.45-0.42-1.37-1c-1.29-0.81-2.82-1.16-4.34-1c-3.65,0.4-6.28,3.68-5.87,7.33
		c0.4,3.65,3.68,6.28,7.33,5.87c2.92-0.32,5.29-2.53,5.81-5.42c0.28-1.5,0.04-3.05-0.66-4.4c-0.5-1-0.93-1.4-0.89-1.44
		s0.13,0.09,0.34,0.3c0.29,0.3,0.55,0.64,0.76,1c0.82,1.38,1.12,3.01,0.86,4.59c-0.62,3.88-4.28,6.52-8.16,5.9
		c-0.06-0.01-0.12-0.02-0.18-0.03c-3.09-0.54-5.47-3.03-5.85-6.15c-0.45-3.91,2.35-7.45,6.26-7.9c0.06-0.01,0.11-0.01,0.17-0.02
		c1.6-0.15,3.2,0.28,4.52,1.19c0.37,0.23,0.7,0.51,1,0.83C90.16,20.62,90.25,20.74,90.23,20.75z"/>
	<path class="st0" d="M93.79,50.36c0,0-0.11,0.12-0.34,0.33l-1.06,0.94c-1.44,1.17-3,2.17-4.66,3c-6.4,3.06-13.82,3.17-20.3,0.29
		h0.2L31.25,88.98l-0.11,0.1H31l-11.24-2.82l-0.22-0.06v-0.23c0.14-2.35,0.3-4.92,0.45-7.53v-0.12l0.08-0.07l3.07-2.87l0.12-0.11
		h0.16l4.63,1.29l-0.37,0.33c-0.22-1.55-0.47-3.25-0.72-5v-0.15l0.12-0.11l5.26-4.91l0.12-0.12l0.17,0.05l7.6,2.13l-0.38,0.33
		L38.68,61v-0.16l0.11-0.11l1.63-1.51l4.5-4.2l0.12-0.12l0.17,0.05l7.6,2.13l-0.38,0.33c-0.39-2.74-0.78-5.45-1.17-8.13v-0.16
		l0.12-0.1l4.9-4.57l-0.06,0.36c-1.9-3.37-2.97-7.14-3.13-11c-0.09-1.87,0.05-3.74,0.4-5.57c0.33-1.8,0.87-3.56,1.6-5.24
		c5.29-12.3,19.56-17.99,31.86-12.69c9.59,4.12,15.46,13.92,14.58,24.32c-0.25,3.24-1.17,6.4-2.7,9.27l-0.45,0.86l-0.49,0.76
		c-0.33,0.49-0.6,1-0.91,1.37c-0.65,0.78-1.15,1.48-1.64,2L94.18,50C93.93,50.25,93.79,50.37,93.79,50.36c0,0.01,0.12-0.14,0.36-0.4
		l1.07-1.14c0.47-0.5,1-1.21,1.59-2c0.3-0.4,0.57-0.88,0.89-1.37l0.48-0.76l0.43-0.86c1.48-2.86,2.36-5.98,2.59-9.19
		c0.99-13.14-8.85-24.6-21.99-25.59c-10.1-0.76-19.58,4.93-23.65,14.2c-0.71,1.64-1.23,3.36-1.55,5.12
		c-0.35,1.79-0.47,3.62-0.38,5.44c0.17,3.76,1.22,7.42,3.06,10.7l0.12,0.2l-0.17,0.16l-4.9,4.57l0.09-0.26
		c0.39,2.67,0.78,5.38,1.17,8.13l0.07,0.46l-0.44-0.13L45,55.5l0.28-0.07l-4.5,4.21l-1.63,1.51l0.09-0.26
		c0.41,2.79,0.8,5.55,1.17,8.13l0.07,0.46l-0.44-0.13l-7.61-2.13l0.29-0.07l-5.27,4.91l0.09-0.25c0.24,1.71,0.49,3.4,0.71,4.95
		l0.06,0.45l-0.43-0.12l-4.63-1.3l0.27-0.07l-3.06,2.86l0.09-0.2c-0.16,2.61-0.32,5.19-0.47,7.53l-0.21-0.29l11.23,2.84l-0.25,0.07
		l36.5-33.94l0.09-0.08l0.11,0.05c6.39,2.86,13.71,2.81,20.06-0.14c1.66-0.79,3.23-1.75,4.69-2.86l1.08-0.91L93.79,50.36z"/>
	<path class="st0" d="M91.58,48.48c1.19-1.27,2.27-2.64,3.24-4.08c1.1-1.71,1.93-3.58,2.47-5.54c0.74-2.6,0.97-5.31,0.69-8
		c-0.33-3.25-1.41-6.37-3.17-9.12c-2.02-3.15-4.85-5.7-8.18-7.4c-1.79-0.93-3.71-1.58-5.69-1.92c-1.02-0.19-2.05-0.31-3.09-0.36
		c-1.06-0.02-2.12,0.04-3.17,0.16c-9.07,1.04-16.4,7.88-18.07,16.85c-0.2,1.04-0.32,2.09-0.38,3.15c-0.02,1.04,0.03,2.08,0.15,3.11
		c0.2,2,0.71,3.96,1.52,5.81c1.46,3.45,3.81,6.44,6.82,8.67c2.62,1.95,5.66,3.25,8.87,3.8c2.65,0.47,5.37,0.43,8-0.13
		c1.99-0.41,3.91-1.11,5.7-2.09c1.51-0.86,2.94-1.84,4.29-2.94c0,0-0.07,0.09-0.24,0.24l-0.75,0.68c-0.4,0.37-0.83,0.7-1.29,1
		c-0.6,0.46-1.24,0.86-1.9,1.22c-1.79,1.02-3.73,1.77-5.74,2.21c-10.03,2.24-20.24-2.99-24.27-12.45c-0.83-1.91-1.37-3.93-1.58-6
		C55.52,33.24,55.59,31.09,56,29c1.7-9.24,9.25-16.27,18.58-17.33c2.14-0.28,4.31-0.2,6.43,0.22c2.04,0.37,4.01,1.04,5.84,2
		c3.41,1.75,6.3,4.39,8.35,7.63c3.28,5.21,4.16,11.58,2.42,17.48c-0.58,1.98-1.46,3.87-2.61,5.58c-0.4,0.64-0.84,1.24-1.34,1.8
		c-0.33,0.44-0.7,0.84-1.1,1.22l-0.73,0.7C91.68,48.41,91.59,48.49,91.58,48.48z"/>
	<path class="st0" d="M90.61,31.39c-0.05,0,0.5-0.52,1.17-1.59c0.94-1.53,1.34-3.33,1.14-5.11c-0.28-2.65-1.9-4.98-4.29-6.17
		c-1.37-0.7-2.93-0.98-4.46-0.79c-4.29,0.52-7.35,4.42-6.84,8.71c0.09,0.72,0.27,1.43,0.56,2.1c0.55,1.29,1.43,2.41,2.54,3.25
		c0.98,0.73,2.12,1.23,3.32,1.45c1.77,0.33,3.59,0.05,5.18-0.79C90.05,31.86,90.56,31.34,90.61,31.39c0.05,0.05-0.11,0.15-0.36,0.38
		c-0.36,0.35-0.77,0.65-1.21,0.89c-2.8,1.62-6.29,1.44-8.9-0.47c-2.61-1.89-3.9-5.11-3.3-8.28c0.66-3.61,3.61-6.36,7.26-6.76
		c1.65-0.2,3.32,0.1,4.79,0.87c1.33,0.69,2.45,1.73,3.24,3c1.71,2.74,1.65,6.23-0.15,8.91c-0.29,0.42-0.62,0.8-1,1.14
		C90.76,31.3,90.62,31.41,90.61,31.39z"/>
	<path class="st0" d="M28.12,87.39c-0.11-0.12,8.09-8,18.33-17.51s18.63-17.19,18.74-17.07s-8.09,8-18.33,17.51
		S28.23,87.51,28.12,87.39z"/>
	<path class="st3" d="M32.64,39.67l0.34-0.74l0.44,0.68c0.36,0.54,0.87,0.97,1.46,1.24l0.75,0.33l-0.68,0.45
		c-0.55,0.36-0.98,0.86-1.25,1.46l-0.33,0.74l-0.45-0.68c-0.36-0.54-0.86-0.98-1.46-1.24l-0.74-0.33l0.68-0.45
		C31.95,40.78,32.38,40.27,32.64,39.67z"/>
	<path class="st3" d="M10.33,34.11l0.19-0.43l0.26,0.39c0.21,0.32,0.5,0.57,0.85,0.72l0.43,0.2l-0.4,0.26
		c-0.31,0.21-0.56,0.5-0.72,0.84l-0.19,0.44l-0.26-0.4c-0.21-0.32-0.5-0.57-0.85-0.72l-0.43-0.2l0.39-0.25
		C9.92,34.75,10.17,34.46,10.33,34.11z"/>
	<path class="st3" d="M80.6,72.14l0.19-0.43l0.26,0.4c0.21,0.31,0.51,0.56,0.85,0.72l0.43,0.19l-0.39,0.26
		c-0.32,0.21-0.57,0.5-0.72,0.85l-0.2,0.43l-0.26-0.39c-0.21-0.32-0.5-0.57-0.84-0.73l-0.44-0.19l0.4-0.26
		C80.2,72.78,80.45,72.49,80.6,72.14z"/>
	<path class="st3" d="M115,52.64l0.33-0.74l0.45,0.68c0.36,0.55,0.86,0.98,1.46,1.24l0.74,0.33l-0.68,0.45
		c-0.55,0.36-0.98,0.86-1.24,1.46l-0.34,0.74l-0.44-0.68c-0.36-0.54-0.87-0.97-1.46-1.24l-0.75-0.33l0.68-0.45
		C114.3,53.74,114.73,53.24,115,52.64z"/>
	<path class="st3" d="M110.53,25.32l0.56-1.25l0.75,1.15c0.6,0.91,1.45,1.64,2.45,2.09l1.25,0.55l-1.15,0.75
		c-0.91,0.61-1.64,1.46-2.09,2.46l-0.56,1.25l-0.75-1.15c-0.6-0.91-1.45-1.64-2.45-2.09l-1.25-0.56l1.15-0.75
		C109.35,27.17,110.08,26.32,110.53,25.32z"/>
	<path class="st3" d="M25.71,16.9l0.56-1.25l0.75,1.14c0.6,0.92,1.45,1.64,2.45,2.09l1.25,0.56l-1.14,0.75
		c-0.92,0.6-1.65,1.45-2.09,2.45l-0.56,1.25l-0.75-1.14c-0.6-0.92-1.46-1.65-2.46-2.09l-1.24-0.56l1.14-0.75
		C24.54,18.75,25.26,17.9,25.71,16.9z"/>
</g>
</svg>
