<?xml version="1.0" encoding="utf-8"?>
<!-- Generator: Adobe Illustrator 23.0.5, SVG Export Plug-In . SVG Version: 6.00 Build 0)  -->
<svg version="1.1" id="Layer_1" xmlns="http://www.w3.org/2000/svg" xmlns:xlink="http://www.w3.org/1999/xlink" x="0px" y="0px"
	 viewBox="0 0 500 500" style="enable-background:new 0 0 500 500;" xml:space="preserve">
<style type="text/css">
	.st0{fill:#E0E0E0;}
	.st1{fill:#F0F0F0;}
	.st2{fill:#FFFFFF;}
	.st3{fill:#E6E6E6;}
	.st4{fill:#263238;}
	.st5{fill:#FF725E;}
	.st6{fill:#455A64;}
	.st7{fill:#E8E8E3;}
	.st8{font-family:'Montserrat-Black';}
	.st9{font-size:8.299px;}
	.st10{opacity:0.1;enable-background:new    ;}
	.st11{opacity:0.2;fill:#FFFFFF;enable-background:new    ;}
	.st12{opacity:0.2;}
	.st13{fill:#EB996E;}
	.st14{fill:#407BFF;}
	.st15{opacity:0.3;}
	.st16{fill:#FFBE9D;}
	.st17{fill:#6F4C47;}
	.st18{fill:#936760;}
	.st19{fill:#FAFAFA;}
</style>
<g id="freepik--background-complete--inject-28">
	<path class="st0" d="M466.9,316.2H303v-94.8h163.9V316.2z M304,315.2h161.9v-92.8H304V315.2z"/>
	<rect x="325" y="271.9" class="st1" width="108.1" height="3.2"/>
	<rect x="325" y="283.8" class="st1" width="115.6" height="3.5"/>
	<rect x="325" y="295.7" class="st1" width="115.6" height="3.5"/>
	<rect x="325" y="254.8" class="st1" width="37.8" height="8.2"/>
	<rect x="303.5" y="221.9" class="st0" width="162.9" height="15.1"/>
	<path class="st2" d="M453.9,234.7c-0.2-0.2,1.9-2.7,4.7-5.6s5.2-5.1,5.4-4.9s-1.9,2.7-4.7,5.7S454.1,234.9,453.9,234.7z"/>
	<path class="st2" d="M464,234.7c-0.2,0.2-2.6-2-5.4-4.9s-4.9-5.5-4.7-5.7s2.6,2,5.4,4.9S464.2,234.5,464,234.7z"/>
	<rect x="102.4" y="34" class="st3" width="162.9" height="93.8"/>
	<rect x="123.8" y="84.1" class="st1" width="108.1" height="3.2"/>
	<rect x="123.8" y="95.9" class="st1" width="115.6" height="3.5"/>
	<rect x="123.8" y="107.9" class="st1" width="115.6" height="3.5"/>
	<rect x="123.8" y="67" class="st1" width="37.8" height="8.2"/>
	<rect x="102.4" y="34" class="st0" width="162.9" height="15.1"/>
	<path class="st2" d="M252.1,46.8c-0.2-0.2,1.9-2.7,4.7-5.7s5.2-5.1,5.4-4.9s-1.9,2.7-4.7,5.7S252.3,47,252.1,46.8z"/>
	<path class="st2" d="M262.3,46.8c-0.2,0.2-2.6-2-5.4-4.9s-4.9-5.5-4.7-5.7s2.6,2,5.4,4.9C260.4,44.1,262.5,46.6,262.3,46.8z"/>
	<path class="st0" d="M203.5,208.4H39.7v-94.9h163.9V208.4z M40.7,207.4h161.9v-92.9H40.7L40.7,207.4z"/>
	<rect x="61.6" y="164.1" class="st1" width="108.1" height="3.2"/>
	<rect x="61.6" y="175.9" class="st1" width="115.6" height="3.5"/>
	<rect x="61.6" y="187.9" class="st1" width="115.6" height="3.5"/>
	<rect x="61.6" y="146.9" class="st1" width="37.8" height="8.2"/>
	<rect x="40.2" y="114" class="st0" width="162.9" height="15.1"/>
	<rect x="200.4" y="230.1" class="st3" width="192.3" height="172.2"/>
	<rect x="59.4" y="175.9" class="st1" width="150.6" height="156.5"/>
	<rect x="59.4" y="175.9" class="st0" width="150.6" height="17.1"/>
	<path class="st2" d="M71.8,184.2c-0.1,1.7-1.6,3.1-3.3,3c-1.7-0.1-3.1-1.6-3-3.3c0.1-1.7,1.5-3,3.2-3
		C70.4,181,71.9,182.5,71.8,184.2z"/>
	<path class="st2" d="M84.7,184.2c-0.1,1.7-1.5,3.1-3.3,3c-1.7-0.1-3.1-1.5-3-3.3c0.1-1.7,1.5-3,3.2-3
		C83.3,181,84.7,182.5,84.7,184.2z"/>
	<path class="st2" d="M97.5,184.2c-0.1,1.7-1.5,3.1-3.3,3c-1.7-0.1-3.1-1.5-3-3.3c0.1-1.7,1.5-3,3.2-3
		C96.1,181,97.5,182.5,97.5,184.2z"/>
	<rect x="253.1" y="68.3" class="st1" width="192.3" height="191.7"/>
	<rect x="253.1" y="68.3" class="st0" width="192.3" height="22.4"/>
	<path class="st2" d="M269.5,79.3c-0.1,2.3-2,4.1-4.3,4c-2.3-0.1-4.1-2-4-4.3c0.1-2.2,1.9-4,4.2-4C267.6,75,269.5,76.9,269.5,79.3z"
		/>
	<path class="st2" d="M285.1,76.3c1.6,1.7,1.5,4.3-0.2,5.9c-1.7,1.6-4.3,1.5-5.9-0.2c-1.5-1.7-1.5-4.2,0.1-5.8
		C280.8,74.6,283.5,74.6,285.1,76.3z"/>
	<path class="st2" d="M303.2,79.3c-0.1,2.3-2,4.1-4.3,4c-2.3-0.1-4.1-2-4-4.3c0.1-2.2,1.9-4,4.2-4C301.4,75,303.3,76.9,303.2,79.3z"
		/>
</g>
<g id="freepik--Floor--inject-28">
	<path class="st4" d="M403.8,453.4c0,0.1-69.4,0.3-155.1,0.3s-155.1-0.1-155.1-0.3s69.4-0.3,155.1-0.3S403.8,453.3,403.8,453.4z"/>
</g>
<g id="freepik--Plant--inject-28">
	<path class="st5" d="M336.2,330.7c-15.5-10.8-19-30.8-18.3-48.8c0.1-3-0.2-6.2,1.2-8.8s4.8-4.4,7.5-3.2c2.2,1,3.2,3.6,4.5,5.8
		c1.7,2.9,4.1,5.2,7,6.7c1.9,1,4.3,1.6,6.2,0.6c2.6-1.4,2.9-5,2.9-8c0-5.6,0-11.2-0.1-16.7c-0.2-3,0.1-6,0.9-8.9
		c0.9-2.8,3-5.5,5.8-6.3s6.4,0.9,7,3.8c0.1,1.2,0.1,2.5,0.1,3.7c0.1,1.3,0.7,2.6,1.8,3s2.4-0.5,3.3-1.4c3.1-3,5.2-6.9,7.1-10.8
		s3.9-7.8,6.7-11.1s6.7-5.9,11-6.1s8.8,2.4,9.9,6.6s-1.4,8.5-4,11.9c-4,5.1-8.6,9.5-13.9,13.3c-1,0.6-1.8,1.4-2.3,2.5
		c-0.6,2,1.2,4,3.2,4.6c2.2,0.7,4.6,0.5,7,0.8s4.9,1.3,5.7,3.5c1.2,3.1-1.3,6.3-3.9,8.4c-5,4.2-10.8,7.5-16.9,9.8
		c-2.2,0.8-4.5,1.5-6.3,3s-2.8,4.2-1.8,6.3s3.8,2.8,6.1,2.4s4.4-1.7,6.6-2.5c4.1-1.5,9.4-1.3,12,2.3c1.6,2.5,2,5.6,1,8.4
		c-1,2.7-2.5,5.3-4.5,7.4c-6.5,7.8-15.1,13.8-24.7,17.2C354.5,333.3,345.6,334.2,336.2,330.7"/>
	<path class="st4" d="M396.2,226.7c0,0-0.1,0.1-0.3,0.3l-0.9,0.8c-0.8,0.7-1.9,1.7-3.4,3.1c-4.1,3.8-7.9,7.9-11.4,12.3
		c-2.2,2.8-4.5,5.9-7,9.3s-5,7.1-7.5,11c-2.7,4.1-5.1,8.4-7.4,12.8c-1.2,2.3-2.2,4.7-3.2,7.1l-3.1,7.4c-4.1,9.4-7.6,19-10.7,28.8
		c-2.4,8-4.1,16.2-5,24.5c-0.6,5.6-0.7,11.3-0.3,16.9c0.2,2,0.3,3.5,0.5,4.6c0.1,0.5,0.1,0.9,0.1,1.2v0.4c0-0.1-0.1-0.3-0.1-0.4
		c0-0.3-0.1-0.7-0.2-1.2c-0.2-1-0.4-2.6-0.5-4.6c-0.5-5.6-0.4-11.3,0.1-16.9c0.8-8.4,2.5-16.6,4.9-24.6c3-9.8,6.5-19.4,10.6-28.8
		l3.2-7.4c1-2.4,2.1-4.8,3.3-7.1c2.2-4.4,4.7-8.7,7.4-12.8c2.6-4,5.1-7.6,7.6-11s4.8-6.5,7-9.3c3.5-4.4,7.4-8.5,11.6-12.2
		c1.5-1.3,2.7-2.3,3.5-3l0.9-0.8C395.9,226.8,396.1,226.7,396.2,226.7z"/>
	<path class="st4" d="M358,276c-0.1-0.4-0.2-0.8-0.3-1.3c-0.2-0.8-0.3-2-0.5-3.5c-0.4-3-0.9-7.1-1.3-11.7s-1-8.7-1.4-11.6
		c-0.2-1.5-0.4-2.7-0.6-3.5c-0.1-0.4-0.2-0.9-0.2-1.3c0.2,0.4,0.3,0.8,0.4,1.3c0.2,0.8,0.5,2,0.8,3.5c0.6,3,1.1,7.1,1.6,11.6
		s0.9,8.6,1.2,11.7c0.1,1.4,0.3,2.6,0.4,3.5C358,275.1,358,275.6,358,276z"/>
	<path class="st4" d="M396.5,268.8c-0.5,0.1-1,0.2-1.5,0.2c-1,0.1-2.4,0.2-4.2,0.4c-3.5,0.4-8.4,1.1-13.7,2.1s-10.1,2.1-13.5,3
		c-1.7,0.4-3.1,0.8-4,1.1c-0.5,0.2-1,0.3-1.5,0.4c0.5-0.2,0.9-0.4,1.4-0.6c0.9-0.3,2.3-0.8,4-1.3c3.4-1,8.2-2.2,13.5-3.2
		c4.5-0.9,9.1-1.5,13.6-1.9c1.8-0.1,3.2-0.2,4.2-0.2C395.5,268.7,396,268.8,396.5,268.8z"/>
	<path class="st4" d="M341.3,318.7c-0.1-0.1-0.2-0.3-0.3-0.5l-0.7-1.4c-0.6-1.2-1.3-3-2.3-5.2c-1.9-4.4-4.2-10.6-6.8-17.4
		s-4.8-13-6.6-17.5c-0.9-2.2-1.6-3.9-2.1-5.3l-0.6-1.4c-0.1-0.2-0.1-0.3-0.2-0.5c0.1,0.1,0.2,0.3,0.3,0.5l0.7,1.4
		c0.6,1.2,1.3,3,2.3,5.2c1.9,4.4,4.2,10.6,6.8,17.4s4.8,13,6.6,17.5c0.9,2.2,1.6,3.9,2.1,5.3c0.2,0.6,0.4,1,0.6,1.4
		C341.2,318.4,341.3,318.5,341.3,318.7z"/>
	<path class="st4" d="M392.4,302.3c-0.2,0.1-0.3,0.2-0.5,0.2l-1.5,0.5l-5.5,1.8c-4.6,1.5-11,3.6-18,6s-13.4,4.5-18.1,5.9
		c-2.3,0.7-4.2,1.3-5.5,1.6l-1.5,0.4c-0.2,0.1-0.4,0.1-0.5,0.1c0.2-0.1,0.3-0.2,0.5-0.2l1.5-0.5l5.5-1.8c4.6-1.5,11-3.6,18-6
		s13.4-4.5,18-5.9c2.3-0.7,4.2-1.3,5.5-1.6l1.5-0.4C392,302.3,392.2,302.3,392.4,302.3z"/>
</g>
<g id="freepik--Padlock--inject-28">
	<path class="st5" d="M371.5,59.7l-5.1,1.8l-2.2-6.7c-4.1-12.4-17-19-28.9-14.8s-18.2,17.8-14.2,30.2l2.2,6.7l-5.2,1.8
		c-4.1,1.6-6.2,6.1-4.8,10.3l14.3,43.8c1.2,4.1,5.5,6.4,9.6,5.2c0.1,0,0.2,0,0.2-0.1l53.4-19.1c4.2-1.6,6.3-6.2,4.9-10.4l-14.3-43.8
		c-1.3-4.1-5.6-6.4-9.6-5.1C371.7,59.6,371.6,59.7,371.5,59.7z M330.9,66.7c-2.3-6.7,1.2-14,7.8-16.5c6.5-2.2,13.5,1.2,15.7,7.7
		c0,0.1,0.1,0.3,0.1,0.4l2.2,6.7l-23.6,8.4L330.9,66.7z M360.9,105.5l3.7,11.2c0.1,0.5-0.1,1-0.6,1.1l-5.1,1.8
		c-0.4,0.1-0.9-0.1-1-0.5l-3.7-11.1c-4.2-0.2-7.8-3-9-7c-1.8-5.3,0.9-11.2,6.2-13.2c5.1-1.8,10.7,1,12.5,6.1c0,0.1,0.1,0.2,0.1,0.3
		C365.2,98.3,364,102.7,360.9,105.5L360.9,105.5z"/>
	<path class="st4" d="M366.2,61.4c0,0.1-9.5,3.7-21.4,8s-21.6,7.7-21.6,7.6s9.5-3.7,21.4-8S366.1,61.3,366.2,61.4z"/>
	<path class="st4" d="M377.5,63.2c0,0.1,0.1,0.2,0.1,0.3c0.1,0.2,0.2,0.5,0.3,0.8c0.3,0.7,0.6,1.7,1.1,3l3.8,11.2
		c1.6,4.7,3.5,10.4,5.6,16.6c1,3.1,2.2,6.4,3.3,9.8c0.6,1.8,0.8,3.6,0.8,5.5c-0.1,1-0.4,1.9-0.8,2.8c-0.5,0.9-1.1,1.6-1.9,2.2
		c-1.5,1.1-3.3,2-5.1,2.6l-5.1,1.8l-9.8,3.5l-16.5,5.9l-11.1,3.9l-3,1l-0.8,0.3c-0.1,0-0.2,0.1-0.3,0.1c0,0,0.1,0,0.3-0.1l0.8-0.3
		l3-1.1l11.1-4.1l16.5-6l9.7-3.5l5.1-1.9c1.8-0.6,3.4-1.4,4.9-2.5c0.7-0.6,1.3-1.3,1.8-2.1c0.4-0.8,0.7-1.7,0.8-2.6
		c0.1-1.8-0.2-3.6-0.7-5.3c-1.1-3.4-2.2-6.7-3.3-9.8c-2.1-6.3-4-11.9-5.5-16.6s-2.8-8.6-3.7-11.2c-0.4-1.3-0.7-2.3-1-3.1l-0.2-0.8
		C377.5,63.4,377.5,63.3,377.5,63.2z"/>
	<path class="st4" d="M349.3,49.4c0,0-0.5-0.3-1.5-0.7c-1.4-0.5-2.9-0.8-4.4-0.9c-2.2-0.1-4.4,0.3-6.5,1.2c-2.5,1.1-4.6,2.9-6.1,5.1
		c-1.5,2.2-2.3,4.9-2.4,7.6c0,2.2,0.4,4.4,1,6.6c0.5,1.8,1.1,3.3,1.4,4.3c0.2,0.5,0.4,1,0.5,1.6c-0.3-0.5-0.5-1-0.7-1.5
		c-0.4-1-1-2.4-1.6-4.3c-0.7-2.1-1.1-4.4-1.1-6.7c0-2.8,0.8-5.6,2.4-7.9c1.6-2.3,3.8-4.2,6.4-5.3c2.1-0.9,4.4-1.3,6.6-1.1
		c1.5,0.1,3,0.4,4.4,1c0.4,0.2,0.7,0.4,1.1,0.6C349.1,49.3,349.2,49.3,349.3,49.4z"/>
	<path class="st4" d="M349.8,88.6c0.2-0.1,0.3-0.2,0.5-0.3c0.5-0.2,1-0.4,1.5-0.6c0.8-0.2,1.7-0.4,2.6-0.4c1.2-0.1,2.4,0.1,3.5,0.5
		c2.6,0.9,4.9,3.5,6.1,7c0.6,1.9,0.6,3.9,0,5.7c-0.6,2-1.7,3.9-3.2,5.4l0.1-0.3c1.3,3.7,2.8,7.6,4.3,11.7l0.1,0.3l-0.3,0.1l-2.3,0.8
		l-5,1.7l-0.3,0.1l-0.1-0.3c-1.4-4.1-2.9-8-4-11.8l0.2,0.2c-2-0.2-3.8-0.9-5.4-2.1c-1.4-1.1-2.5-2.4-3.4-4c-0.7-1.4-1.1-2.9-1.1-4.5
		c0.1-3.2,1.6-6.3,4.2-8.3C348.5,89.2,349.1,88.8,349.8,88.6c-0.6,0.3-1.2,0.7-1.7,1.1c-1.4,1.2-2.5,2.7-3.1,4.4
		c-1.1,2.6-1,5.6,0.3,8.1c0.8,1.5,1.9,2.8,3.3,3.8c1.5,1.2,3.2,1.8,5.1,2h0.2l0,0.2c1.1,3.7,2.6,7.6,4,11.8l-0.3-0.2l5-1.7l2.3-0.8
		l-0.2,0.3c-1.5-4.1-2.9-8.1-4.3-11.8v-0.2l0.1-0.1c1.5-1.4,2.5-3.2,3.2-5.2c0.5-1.8,0.5-3.7,0-5.5c-1.1-3.4-3.3-5.9-5.8-6.8
		c-1.1-0.4-2.2-0.6-3.4-0.6c-0.9,0-1.7,0.1-2.6,0.3C350.5,88.3,349.8,88.6,349.8,88.6z"/>
</g>
<g id="freepik--Device--inject-28">
	<path class="st6" d="M318.9,377.3l-99.9-0.5c-12-0.1-21.7-9.8-21.6-21.9l1.1-250.4c0-12,9.8-21.7,21.8-21.7c0,0,0,0,0,0l99.9,0.5
		c12,0.1,21.7,9.8,21.7,21.8l-1.1,250.4C340.7,367.7,330.9,377.4,318.9,377.3C318.9,377.3,318.9,377.3,318.9,377.3z"/>
	<path class="st2" d="M320,92h-19.4c-2.7,0-4.8,2.2-4.7,4.9c0,0,0,0,0,0v3.5c0.1,2.7-2.1,4.8-4.7,4.9c0,0,0,0,0,0l-37.7-0.2
		c-2.7-0.1-4.8-2.3-4.7-4.9v-3.5c0.1-2.7-2-4.9-4.7-4.9h-6.8l-16.9-0.1c-8.4,0-15.2,6.7-15.3,15.1l-1,244.4
		c0,8.4,6.7,15.3,15.2,15.3c0,0,0,0,0,0l99.7,0.5c8.4,0,15.3-6.8,15.3-15.2c0,0,0,0,0,0l1-244.4C335.2,98.9,328.4,92.1,320,92z"/>
	<path class="st5" d="M306.6,334.3l-74.1-0.3c-0.8,0-1.4-0.8-1.4-1.9l0.1-19.4c0-1,0.6-1.9,1.4-1.9l74.1,0.3c0.9,0.2,1.5,1,1.4,1.9
		l-0.1,19.4C308,333.5,307.4,334.3,306.6,334.3z"/>
	<text transform="matrix(0.96 0 0 1 257.5898 324.9498)" class="st7 st8 st9">LOGIN</text>
	
		<rect x="232" y="153.3" transform="matrix(4.537840e-03 -1 1 4.537840e-03 67.1698 399.779)" class="st5" width="4.7" height="25.7"/>
	
		<rect x="232" y="153.3" transform="matrix(4.537840e-03 -1 1 4.537840e-03 67.1698 399.779)" class="st10" width="4.7" height="25.7"/>
	<path class="st0" d="M322.6,192.8c0.2,0,0.4-0.1,0.6-0.1c0.6-0.2,1-0.7,1-1.4c0-1.6,0-3.9,0-6.9c0-1.5,0-3.2,0-5c0-0.4,0-0.9,0-1.4
		c0.1-0.5,0-0.9-0.3-1.3c-0.3-0.4-0.7-0.6-1.2-0.6h-1.6h-14.5l-83.6-0.3c-0.4,0-0.8,0.2-1.1,0.6c-0.2,0.4-0.3,0.9-0.3,1.3
		c0,1,0,2,0,3c0,2,0,4,0,6c0,1,0,2,0,3c0,0.5,0,0.9,0,1.4c0.1,0.4,0.4,0.7,0.8,0.9c0.2,0.1,0.4,0.1,0.6,0.1h5.1l22.2,0.1l37.6,0.2
		l25.4,0.2l6.9,0.1h1.8c0.4,0,0.6,0,0.6,0h-0.6h-1.8h-6.9h-25.4l-37.6-0.1l-22.2-0.1h-5.1c-0.3,0-0.6,0-0.8-0.1
		c-0.5-0.2-0.9-0.7-1.1-1.3c-0.1-0.3-0.1-0.5-0.1-0.8v-0.7c0-1,0-2,0-3c0-2,0-4,0-6c0-1,0-2,0-3c0-0.3,0-0.5,0-0.8
		c0-0.3,0.2-0.6,0.3-0.8c0.4-0.5,0.9-0.8,1.5-0.8l83.6,0.5l14.5,0.1h1.6c0.6,0,1.1,0.3,1.4,0.7c0.3,0.4,0.4,1,0.3,1.5
		c0,0.5,0,0.9,0,1.4c0,1.8,0,3.5,0,5c0,3-0.1,5.3-0.1,6.9c0,0.6-0.5,1.2-1,1.4C323.1,192.8,322.9,192.8,322.6,192.8z"/>
	<rect x="229.3" y="180.8" class="st5" width="47" height="4.4"/>
	<rect x="229.3" y="180.8" class="st11" width="47" height="4.4"/>
	
		<rect x="231.8" y="196.4" transform="matrix(4.537840e-03 -1 1 4.537840e-03 23.9369 442.4669)" class="st5" width="4.7" height="25.7"/>
	
		<rect x="231.8" y="196.4" transform="matrix(4.537840e-03 -1 1 4.537840e-03 23.9369 442.4669)" class="st10" width="4.7" height="25.7"/>
	<path class="st0" d="M322,235.9c0.2,0,0.4-0.1,0.6-0.1c0.6-0.2,1-0.6,1.3-1.1c0.2-0.4,0.2-0.8,0.2-1.3c0-0.5,0-1,0-1.6
		c0-1.2,0-2.5,0-4v-6.4c0-0.5-0.1-0.9-0.3-1.3c-0.2-0.4-0.6-0.7-1.1-0.9c-0.5-0.1-1-0.1-1.5-0.1h-14.4l-83.4-0.3
		c-0.9,0-1.7,0.7-1.8,1.6c0,0.9,0,2,0,3c0,2,0,4,0,6c0,1,0,2,0,3c0,0.5,0,0.9,0.1,1.4c0.1,0.4,0.4,0.8,0.7,1
		c0.4,0.2,0.8,0.3,1.2,0.3h1.4h2.9l22.1,0.1l37.5,0.2l25.3,0.2l6.9,0.1h1.8L322,235.9l-0.6-0.1h-1.8h-6.9h-25.3l-37.5,0l-22.1-0.1
		h-4.4c-0.5,0-1.1-0.1-1.5-0.4c-0.5-0.3-0.8-0.8-0.9-1.3c-0.1-0.5-0.1-1-0.1-1.5c0-1,0-2,0-3c0-2,0-4,0-6c0-1,0-2,0-3
		c0.2-1.2,1.2-2.1,2.4-2.1l83.3,0.5l14.4,0.1c0.5,0,1.1,0,1.6,0.1c0.5,0.2,1,0.5,1.2,1c0.3,0.4,0.4,1,0.3,1.5c0,0.5,0,0.9,0,1.4
		c0,1.8,0,3.5,0,5s0,2.8,0,4c0,0.6,0,1.1,0,1.6c0,0.4,0,0.9-0.2,1.3c-0.3,0.6-0.8,1-1.4,1.1C322.4,236,322.2,235.9,322,235.9z"/>
	
		<rect x="231.7" y="241.3" transform="matrix(4.537840e-03 -1 1 4.537840e-03 -21.1842 486.9979)" class="st5" width="4.7" height="25.7"/>
	
		<rect x="231.7" y="241.3" transform="matrix(4.537840e-03 -1 1 4.537840e-03 -21.1842 486.9979)" class="st10" width="4.7" height="25.7"/>
	<path class="st0" d="M321.8,280.8c0.2,0,0.4-0.1,0.6-0.1c0.6-0.2,1-0.6,1.3-1.1c0.2-0.4,0.2-0.8,0.2-1.3c0-0.5,0-1,0-1.6
		c0-1.1,0-2.5,0-4v-6.4c0-0.5-0.1-0.9-0.3-1.3c-0.3-0.4-0.6-0.7-1.1-0.8c-0.5-0.1-1-0.1-1.5-0.1h-14.4l-83.4-0.3
		c-0.9,0-1.7,0.7-1.8,1.6c0,1,0,2,0,3c0,2,0,4,0,6c0,1,0,2,0,3c0,0.5,0,0.9,0.1,1.4c0.1,0.4,0.4,0.8,0.7,1c0.4,0.2,0.8,0.4,1.2,0.3
		h4.4l22.1,0.1l37.5,0.2l25.3,0.2l6.9,0.1h1.8C321.7,280.7,321.9,280.7,321.8,280.8c0.1-0.1-0.1-0.1-0.5-0.1h-1.8h-6.9h-25.3
		l-37.5-0.1l-22.1-0.1h-4.4c-0.5,0-1.1-0.1-1.5-0.4c-0.5-0.3-0.8-0.8-0.9-1.3c-0.1-0.5-0.1-1-0.1-1.5c0-1,0-2,0-3c0-2,0-4,0-6
		c0-1,0-2,0-3c0.1-1.2,1.1-2.1,2.3-2.1l83.3,0.5l14.4,0.1c0.5,0,1.1,0,1.6,0.1c0.5,0.2,1,0.5,1.2,1c0.3,0.4,0.4,1,0.3,1.5
		c0,0.5,0,0.9,0,1.4c0,1.8,0,3.5,0,5s0,2.8,0,4c0,0.6,0,1.1,0,1.6c0,0.4,0,0.9-0.2,1.3c-0.3,0.6-0.8,1-1.4,1.1
		C322.3,280.8,322,280.8,321.8,280.8z"/>
	
		<rect x="249.6" y="203.7" transform="matrix(4.537840e-03 -1 1 4.537840e-03 23.3709 477.9873)" class="st5" width="4.4" height="47"/>
	
		<rect x="249.6" y="203.7" transform="matrix(4.537840e-03 -1 1 4.537840e-03 23.3709 477.9873)" class="st11" width="4.4" height="47"/>
	<path class="st5" d="M232.5,272.6c-0.1,1.1-1.1,2-2.2,1.9c-1.1-0.1-2-1.1-1.9-2.2c0.1-1.1,1-1.9,2.1-1.9
		C231.7,270.5,232.6,271.5,232.5,272.6z"/>
	<path class="st5" d="M238.9,272.7c0.1,1.1-0.8,2.1-1.9,2.2c-1.1,0.1-2.1-0.8-2.2-1.9c0-0.1,0-0.2,0-0.3c-0.1-1.1,0.8-2.1,1.9-2.2
		c1.1-0.1,2.1,0.8,2.2,1.9C238.9,272.5,238.9,272.6,238.9,272.7z"/>
	<path class="st5" d="M245.3,272.7c-0.1,1.1-1.1,2-2.2,1.9c-1.1-0.1-2-1.1-1.9-2.2c0.1-1.1,1-1.9,2.1-1.9
		C244.4,270.6,245.3,271.5,245.3,272.7z"/>
	<path class="st5" d="M251.6,272.7c-0.1,1.1-1.1,2-2.2,1.9c-1.1-0.1-2-1.1-1.9-2.2c0.1-1.1,1-1.9,2.1-1.9
		C250.8,270.6,251.7,271.6,251.6,272.7z"/>
	<path class="st5" d="M258,272.8c-0.1,1.1-1.1,2-2.2,1.9c-1.1-0.1-2-1.1-1.9-2.2c0.1-1.1,1-1.9,2.1-1.9
		C257.2,270.6,258,271.6,258,272.8z"/>
	<path class="st5" d="M264.4,272.8c-0.1,1.1-1.1,2-2.2,1.9s-2-1.1-1.9-2.2c0.1-1.1,1-1.9,2.1-1.9
		C263.5,270.6,264.4,271.6,264.4,272.8z"/>
	<path class="st5" d="M270.8,272.8c0.1,1.1-0.8,2.1-1.9,2.2c-1.1,0.1-2.1-0.8-2.2-1.9c0-0.1,0-0.2,0-0.3c-0.1-1.1,0.8-2.1,1.9-2.2
		c1.1-0.1,2.1,0.8,2.2,1.9C270.8,272.6,270.8,272.7,270.8,272.8z"/>
	<path class="st5" d="M277.1,272.8c-0.1,1.1-1.1,2-2.2,1.9s-2-1.1-1.9-2.2c0.1-1.1,1-1.9,2.1-1.9
		C276.2,270.7,277.2,271.7,277.1,272.8z"/>
	<path class="st5" d="M283.5,272.9c-0.1,1.1-1.1,2-2.2,1.9c-1.1-0.1-2-1.1-1.9-2.2c0.1-1.1,1-1.9,2.1-1.9
		C282.6,270.7,283.5,271.7,283.5,272.9z"/>
	<g class="st12">
		<path class="st2" d="M232.5,272.6c-0.1,1.1-1.1,2-2.2,1.9c-1.1-0.1-2-1.1-1.9-2.2c0.1-1.1,1-1.9,2.1-1.9
			C231.7,270.5,232.6,271.5,232.5,272.6z"/>
		<path class="st2" d="M238.9,272.7c0.1,1.1-0.8,2.1-1.9,2.2c-1.1,0.1-2.1-0.8-2.2-1.9c0-0.1,0-0.2,0-0.3c-0.1-1.1,0.8-2.1,1.9-2.2
			c1.1-0.1,2.1,0.8,2.2,1.9C238.9,272.5,238.9,272.6,238.9,272.7z"/>
		<path class="st2" d="M245.3,272.7c-0.1,1.1-1.1,2-2.2,1.9c-1.1-0.1-2-1.1-1.9-2.2c0.1-1.1,1-1.9,2.1-1.9
			C244.4,270.6,245.3,271.5,245.3,272.7z"/>
		<path class="st2" d="M251.6,272.7c-0.1,1.1-1.1,2-2.2,1.9c-1.1-0.1-2-1.1-1.9-2.2c0.1-1.1,1-1.9,2.1-1.9
			C250.8,270.6,251.7,271.6,251.6,272.7z"/>
		<path class="st2" d="M258,272.8c-0.1,1.1-1.1,2-2.2,1.9c-1.1-0.1-2-1.1-1.9-2.2c0.1-1.1,1-1.9,2.1-1.9
			C257.2,270.6,258,271.6,258,272.8z"/>
		<path class="st2" d="M264.4,272.8c-0.1,1.1-1.1,2-2.2,1.9s-2-1.1-1.9-2.2c0.1-1.1,1-1.9,2.1-1.9
			C263.5,270.6,264.4,271.6,264.4,272.8z"/>
		<path class="st2" d="M270.8,272.8c0.1,1.1-0.8,2.1-1.9,2.2c-1.1,0.1-2.1-0.8-2.2-1.9c0-0.1,0-0.2,0-0.3c-0.1-1.1,0.8-2.1,1.9-2.2
			c1.1-0.1,2.1,0.8,2.2,1.9C270.8,272.6,270.8,272.7,270.8,272.8z"/>
		<path class="st2" d="M277.1,272.8c-0.1,1.1-1.1,2-2.2,1.9s-2-1.1-1.9-2.2c0.1-1.1,1-1.9,2.1-1.9
			C276.2,270.7,277.2,271.7,277.1,272.8z"/>
		<path class="st2" d="M283.5,272.9c-0.1,1.1-1.1,2-2.2,1.9c-1.1-0.1-2-1.1-1.9-2.2c0.1-1.1,1-1.9,2.1-1.9
			C282.6,270.7,283.5,271.7,283.5,272.9z"/>
	</g>
	<path class="st5" d="M274.4,128.5c1.4-0.6,2.3-2,2.3-3.6c0.1-2-1.4-3.7-3.4-3.8c-2-0.1-3.7,1.4-3.8,3.4c0,0.1,0,0.3,0,0.4
		c0,1.6,0.9,3,2.3,3.6c-5.6,0.8-5.4,6.9-5.4,6.9l13.2,0.1C279.7,135.5,280,129.3,274.4,128.5z"/>
	<path class="st10" d="M274.4,128.5c1.4-0.6,2.3-2,2.3-3.6c0.1-2-1.4-3.7-3.4-3.8c-2-0.1-3.7,1.4-3.8,3.4c0,0.1,0,0.3,0,0.4
		c0,1.6,0.9,3,2.3,3.6c-5.6,0.8-5.4,6.9-5.4,6.9l13.2,0.1C279.7,135.5,280,129.3,274.4,128.5z"/>
	
		<rect x="269.5" y="118.6" transform="matrix(4.537840e-03 -1 1 4.537840e-03 128.9482 413.8634)" class="st5" width="5.6" height="47.2"/>
	
		<rect x="269.5" y="118.6" transform="matrix(4.537840e-03 -1 1 4.537840e-03 128.9482 413.8634)" class="st11" width="5.6" height="47.2"/>
</g>
<g id="freepik--speech-bubble--inject-28">
	<path class="st5" d="M122.5,168.7H122l-1.4,0.1c-0.7,0-1.5,0.1-2.2,0.3c-0.5,0.1-0.9,0.2-1.4,0.3l-1.6,0.4c-2.6,0.8-5.1,2-7.4,3.6
		c-3,2.2-5.4,4.9-7.3,8.1c-1.1,1.8-1.9,3.8-2.5,5.8c-0.6,2.2-1,4.5-1.1,6.8c-0.1,1.2,0,2.4,0.1,3.6c0,0.6,0.2,1.2,0.3,1.8
		c0.1,0.6,0.2,1.2,0.3,1.9c1.8,8.1,7.4,14.9,15,18.3c2.7,1.2,5.6,1.8,8.6,1.9c3.1,0.2,6.1-0.3,9-1.3l0.9-0.3h0.1l0.1,0.1l12.6,6.4
		l-0.4,0.3c-1.4-4.2-2.6-8.2-3.9-12.1v-0.1l0.1-0.1c3.1-3.1,5.3-6.9,6.6-11c1.2-3.8,1.5-7.8,1-11.7c-0.5-3.5-1.6-6.9-3.3-9.9
		c-1.5-2.6-3.4-5-5.7-7c-1.9-1.6-4-2.9-6.2-3.9c-1.7-0.7-3.4-1.3-5.2-1.6l-2-0.3l-1.4-0.1l-0.9-0.1L122.5,168.7c0.2,0,0.3,0,0.4,0
		h0.9l1.4,0.1l2,0.3c1.8,0.3,3.6,0.9,5.3,1.6c2.3,1,4.4,2.3,6.3,3.9c2.3,2,4.3,4.4,5.8,7c1.8,3.1,2.9,6.5,3.4,10.1
		c0.6,4,0.2,8.1-0.9,11.9c-1.3,4.2-3.6,8.1-6.7,11.2l0.1-0.3c1.3,3.9,2.6,7.9,3.9,12.1l0.2,0.6l-0.6-0.3l-12.6-6.4h0.2l-0.9,0.3
		c-2.9,1-6.1,1.5-9.2,1.3c-3-0.1-6-0.8-8.8-2c-5.3-2.3-9.7-6.2-12.5-11.2c-1.3-2.3-2.3-4.8-2.8-7.4c-0.2-0.6-0.3-1.3-0.3-1.9
		c-0.1-0.6-0.2-1.3-0.2-1.9c-0.3-3.6,0.1-7.1,1.1-10.6c0.6-2.1,1.5-4,2.6-5.9c1.9-3.2,4.4-6,7.4-8.1c2.3-1.6,4.8-2.8,7.5-3.6
		l1.6-0.4c0.5-0.1,0.9-0.2,1.4-0.3c0.7-0.1,1.5-0.2,2.2-0.2l1.4-0.1C122.2,168.7,122.3,168.7,122.5,168.7z"/>
	<path class="st5" d="M128.2,192h-1.8l-4-5.6v-3.7c0,0-2.9-0.2-2.5,4.6s0,3.6,0,3.6s-6.1,0-6.6,0.6s-0.5,6.4-0.6,9.7
		c-0.1,1.6,1,3.1,2.5,3.6c0.2,0.1,0.4,0.1,0.7,0.1c1.5,0,9.3-1.2,9.3-1.2h3.2L128.2,192z"/>
	<polygon class="st5" points="133.5,191 132.3,203.6 129.2,203.6 129.2,191.3 	"/>
</g>
<g>
	<path class="st0" d="M403.2,326.1c0.2-0.5,0.5-1.1,0.9-1.5c0.6-0.9,1.5-2.1,2.5-3.4c1-1.3,1.9-2.5,2.6-3.4c0.4-0.5,0.8-0.9,1.1-1.3
		c-0.3,0.5-0.6,1-1,1.5l-2.5,3.4c-0.9,1.3-1.8,2.5-2.5,3.4C404,325.2,403.7,325.6,403.2,326.1z"/>
	<polygon class="st13" points="422.3,363.5 415.5,360.9 389.4,360.2 383.4,361.8 384.1,376.6 397.8,385.3 411.2,385.1 419.5,377.4 
		421.4,369.9 	"/>
	<path class="st14" d="M344.8,386.1c1.6-3.4,3.4-6.7,5.4-9.8c3.2-5.1,8.3-8.6,14.1-9.9l21.9-6c0,0,1.5,14.8,16.5,14.8
		c15,0,15.4-13.7,15.4-13.7l27.7,10.1c0.8,0.3,6.7,2.4,13.6,17.1c6.5,14,9.3,21.1,9.3,21.1l-26,7l-1.8,24.1l0.5,13.4l-79.4-0.2
		l0.5-15.3l-0.4-25.4l-1.7,3.1l-24.7-10C335.9,406.7,338.4,399.3,344.8,386.1z"/>
	<path class="st4" d="M362.1,400.3c-0.2,0-0.1,8.5,0.2,19s0.5,19,0.6,19s0.1-8.5-0.2-19C362.4,408.8,362.1,400.3,362.1,400.3z"/>
	<g class="st15">
		<path d="M439.4,402.8c-1.2-1.4-3.1-1.8-5-2.1c-20.5-4.2-41.4-2.5-62.1,0.2c-2.6,0.3-5.4,0.8-7,2.9c-1.1,1.5-0.4,3.4-0.5,5.4
			c-0.5,9.6,0.7,19.8,2.6,29.2l70.5-1.1c2.4-7.3,3-19.7,3.1-28.1C440.9,406.8,440.8,404.4,439.4,402.8z"/>
	</g>
	<path class="st4" d="M443.9,391.7c0,0.2,0,0.2,0,0.4v1.1c0,0.9,0,2.2-0.1,3.8c-0.1,3.2-0.2,7.7-0.5,12.5c-0.3,4.8-0.6,9.3-0.8,12.5
		c-0.2,1.5-0.2,2.8-0.3,3.8c-0.1,0.4-0.1,0.8-0.1,1c0,0.2,0,0.2-0.1,0.4c0-0.2,0-0.2,0-0.4c0-0.3,0-0.6,0.1-1.1
		c0.1-0.9,0.2-2.2,0.2-3.8c0.2-3.2,0.5-7.7,0.8-12.5c0.3-4.8,0.5-9.3,0.6-12.5c0.1-1.5,0.2-2.8,0.2-3.8l0.1-1.1
		C443.9,392,443.9,391.8,443.9,391.7z"/>
	<path class="st4" d="M374.9,329.5c0,0-1.8,2.4-1.8,6.7c0,2.3,1.6,7,5.7,7.3c-1.1,6.7,3.1,11.6,10.3,11.6s15.2-12.2,21.8-14.8
		l19.1-5.1c1.7-0.4,2.4-2.5,2.3-4.1s-0.5-3.5,0.2-5.1c0.8-2.2,3.4-3.4,4.3-5.6c1-2.5-0.5-5.3-2.3-7.3s-3.9-3.9-4.5-6.5
		c-0.5-2.4,0.4-5.1-0.8-7.3c-1.5-2.7-5.4-3-7.1-5.4c-0.8-1.1-1.1-2.8-2-3.9c-1.5-2-4.3-2.5-6.8-2.3c-2.5,0.2-4.9,1.1-7.4,1.4
		c-3.4,0.2-7-0.8-10.3,0.2c-3.6,1.1-5.8,4.3-8.2,7.4l-3.1,3.6c-0.6,0.6-1.3,1.1-2.1,1.7c-1.3,0.8-2.8,1.5-3.9,2.5
		c-2.3,2.5-2.2,6.3,0.2,8.6c0.1,0.1,0.2,0.1,0.2,0.2c-2.7,0.9-4.4,3.5-4.4,6.4c0,0-0.3,3.1,1.7,4.6
		C374.5,325.3,373.9,327.6,374.9,329.5z"/>
	<path class="st4" d="M387.6,336c-1.5-4.8-3.1-9.7-3.8-14.7c-0.7-5-0.5-10.3,1.2-15c0.3-0.7,2.5-5.6,3.3-5.5
		c0.5,0.1-0.8,4.6-0.6,5.1c2.7,4.5,3.4,10,2.9,15.2C390.3,326,389.2,331.1,387.6,336"/>
	<path class="st16" d="M401.4,373.9c-7.9-0.2-13.6-13.1-13.6-13.1l-0.5-44.3c-0.4-12.7,6.7-23.6,19.4-23.7l1.1,0.1
		c11.9,0.6,21.2,10.3,21.5,22.1c0.3,11,0.5,23.3,0.1,29.1c-0.8,12.2-13.1,13.5-13.1,13.5s-0.1,2.8-0.1,6.4
		C416.2,372.1,404.6,374.1,401.4,373.9L401.4,373.9z"/>
	<path class="st13" d="M416.2,357.6c-5.7-0.3-11.1-2.2-15.6-5.6c0,0,3.4,9.1,15.6,8.7V357.6z"/>
	<path class="st4" d="M423,325.6c-0.1,0.9-0.8,1.7-1.8,1.7c-0.9,0-1.7-0.7-1.7-1.6c0,0,0,0,0-0.1c0-0.9,0.8-1.7,1.8-1.7
		C422.3,323.9,423,324.6,423,325.6C423,325.5,423,325.6,423,325.6z"/>
	<path class="st4" d="M406.3,325.1c-0.1,0.9-0.8,1.7-1.8,1.7c-0.9,0-1.7-0.7-1.7-1.6c0,0,0,0,0-0.1c0-0.9,0.8-1.7,1.8-1.7
		C405.5,323.4,406.3,324.1,406.3,325.1L406.3,325.1z"/>
	<path class="st4" d="M413.9,334.6c0-0.1,1.1-0.2,3.1-0.4c0.5,0,0.9-0.1,1.1-0.4c0.1-0.5,0-1-0.2-1.5c-0.4-1.1-0.8-2.5-1.2-3.8
		c-1.7-5.3-2.9-9.7-2.7-9.7c0.2-0.1,1.8,4.2,3.4,9.5l1.1,3.8c0.2,0.6,0.3,1.3,0.2,1.9c-0.2,0.3-0.5,0.6-0.8,0.7
		c-0.3,0.1-0.5,0.1-0.8,0.1C415.1,334.7,413.9,334.7,413.9,334.6z"/>
	<path class="st4" d="M408.3,335.6c0.3,0,0.2,2.1,1.8,3.6c1.6,1.5,3.8,1.5,3.8,1.7c0,0.2-0.5,0.4-1.5,0.4c-1.2-0.1-2.3-0.5-3.2-1.3
		c-0.8-0.8-1.4-1.8-1.5-3C407.9,336,408.2,335.6,408.3,335.6z"/>
	<path class="st4" d="M408.3,312.1c-0.2,0.5-2.1,0.2-4.3,0.3c-2.2,0.2-4.1,0.7-4.3,0.2c-0.2-0.2,0.2-0.7,1-1.1
		c2-1.1,4.4-1.2,6.5-0.4C408,311.5,408.4,311.9,408.3,312.1z"/>
	<path class="st4" d="M425.9,313.8c-0.4,0.4-1.6-0.1-3.1-0.2c-1.5-0.2-2.9,0.2-3.1-0.3c-0.2-0.2,0.1-0.6,0.7-1
		c1.6-0.9,3.7-0.8,5.1,0.5C425.9,313.1,426.1,313.5,425.9,313.8z"/>
	<path class="st16" d="M387.6,325.6c-0.2-0.1-8.3-2.9-8.4,5.4c-0.2,8.3,8.3,6.8,8.3,6.6S387.6,325.6,387.6,325.6z"/>
	<path class="st17" d="M385,334.4c0,0-0.2,0.1-0.4,0.2c-0.4,0.2-0.8,0.2-1.1,0c-0.8-0.4-1.6-1.8-1.6-3.3c0-0.7,0.2-1.5,0.5-2.1
		c0.2-0.5,0.6-0.9,1.1-1.1c0.4-0.1,0.7,0.1,0.8,0.4c0.1,0.2,0.1,0.4,0.1,0.4s0.2-0.2,0.2-0.5c-0.1-0.2-0.2-0.4-0.3-0.5
		c-0.2-0.2-0.5-0.2-0.8-0.2c-0.7,0.2-1.3,0.6-1.5,1.2c-0.4,0.7-0.5,1.5-0.5,2.3c0,1.7,0.8,3.3,2.1,3.7c0.5,0.2,0.9,0.1,1.3-0.2
		C385,334.6,385,334.4,385,334.4z"/>
	<path class="st4" d="M424,301.2c1.4-0.8-2.7-5.2-6-6.7c-5-2.4-12.6-3.8-17.3-2.6c-5.6,1.5-10.3,4.2-13.2,9.3
		c-2.8,5.1-4.1,11-3.9,16.8c-0.1,1.8,0.3,3.5,1.1,5.1c1.1,1.8,3.4,3.1,3.2,5.6c-0.1,0.9,0.2,1.8,0.8,2.6c1.5,1.6,3.4,0.2,4.3-1.4
		c1.9-3.2,2.1-7.2,2.4-10.9c0.2-2.7,0.3-5.4-0.5-8c-0.4-1.4-1.1-2.8-1.4-4.1c-0.4-1.5-0.2-2.9,0.7-4.1c0.2-0.2,0.5-0.5,0.7-0.7
		c2.4-2.1,5.7-2.6,8.7-1.5c4.7,1.8,12.7,4.3,14.9,2.8c3.1-2.3,3.8-3.8,3.8-3.8L424,301.2z"/>
	<path class="st4" d="M401.2,290.7c4.7-1.6,9.7-1.2,14.2,1c2.3,1.2,4.3,3.1,5,5.6s-0.5,5.5-2.8,6.4l-0.2,0.1
		c-3.6,1.1-5.9,0.7-9.4-0.6c-3-1.1-5.6-3-8.6-4c-3.2-1.1-6.7-1.3-10-0.5C392.5,295.1,396.6,292.3,401.2,290.7z"/>
	<path class="st6" d="M385.3,299c0.1,0.1,0.8-0.8,2.1-1.7c0.8-0.5,1.6-1,2.5-1.4c1.1-0.5,2.2-0.6,3.4-0.6c2.1,0.2,4.1,1.1,5.8,2.4
		c1.3,1,1.9,1.9,2,1.8c0.1-0.1-0.1-0.2-0.4-0.6c-0.4-0.5-0.8-1.1-1.4-1.5c-1.7-1.5-3.8-2.5-6.1-2.7c-1.2-0.1-2.5,0.2-3.7,0.7
		c-0.9,0.4-1.8,0.9-2.6,1.5C386.4,297.5,385.8,298.2,385.3,299z"/>
	<path class="st6" d="M410.8,289.9c0.7,0.3,1.5,0.6,2.2,0.8c3.5,1.4,6.5,3.9,8.6,7c0.4,0.7,0.8,1.4,1.2,2c-0.2-0.8-0.5-1.5-0.9-2.2
		c-0.9-1.7-2.2-3.2-3.8-4.4c-1.5-1.2-3.2-2.2-5.1-2.8C412.4,290.1,411.6,289.9,410.8,289.9z"/>
	<path class="st6" d="M376.1,320.2c0,0,0.3,0.2,0.8,0.3c0.8,0.2,1.5,0.2,2.3,0.2c1.1-0.2,2.2-0.5,3.2-1.1c1.1-0.6,2.4-1.5,3.7-2.2
		c1.2-0.8,2.6-1.3,4.1-1.5c1.1-0.2,2.4,0.1,3.4,0.6c0.7,0.4,1.3,1,1.6,1.8c0.1,0.2,0.2,0.4,0.2,0.6c0,0.1,0,0.2,0,0.2
		c0,0-0.1-0.3-0.4-0.8c-0.4-0.7-1-1.2-1.7-1.6c-1-0.5-2.1-0.8-3.3-0.5c-1.4,0.2-2.7,0.8-3.9,1.5c-1.3,0.8-2.5,1.6-3.7,2.1
		c-1.1,0.5-2.1,0.9-3.4,1.1c-0.8,0.1-1.6,0-2.4-0.2c-0.2-0.1-0.4-0.2-0.5-0.2C376.2,320.3,376.2,320.3,376.1,320.2z"/>
	<path class="st6" d="M376.6,323.9c0.9,0.2,1.8,0.2,2.8,0.2c1-0.2,2-0.4,3-0.7c1.1-0.4,2.2-0.8,3.5-1.4c1.1-0.5,2.5-0.7,3.7-0.8
		c1.1-0.1,2.1,0.2,3.1,0.6c0.6,0.3,1.2,0.7,1.7,1.2c0.2,0.2,0.2,0.3,0.3,0.5c0.1,0.1,0.1,0.2,0.1,0.2s-0.2-0.2-0.5-0.6
		c-0.5-0.5-1.1-0.8-1.7-1.1c-0.9-0.4-1.9-0.5-2.9-0.5c-1.2,0.1-2.5,0.4-3.6,0.8c-1.2,0.5-2.4,0.9-3.5,1.3c-1,0.3-2,0.5-3,0.7
		c-0.7,0.1-1.4,0-2.1-0.2c-0.2-0.1-0.4-0.1-0.5-0.2C376.8,323.9,376.6,323.9,376.6,323.9z"/>
	<path class="st6" d="M433.5,316.4c0,0.2-0.2,0.5-0.3,0.8c-0.3,0.5-0.8,1-1.3,1.4c-0.5,0.4-1.1,0.6-1.8,0.7c-0.2,0.1-0.5,0.1-0.8,0
		c0.8-0.2,1.6-0.5,2.4-0.8C432.4,317.7,433,317,433.5,316.4z"/>
	<path class="st6" d="M435.4,320.7c-0.1,0.4-0.2,0.8-0.4,1.1c-1,1.7-2.7,2.8-4.6,2.9c-0.4,0.1-0.8,0-1.1-0.1c0-0.1,0.5,0,1.1-0.2
		c1.8-0.3,3.4-1.3,4.4-2.8C435.2,321.2,435.4,320.7,435.4,320.7z"/>
	<path class="st16" d="M466.6,410.5l10.6,21.4c1.2,2.4,1.8,5.1,1.6,7.7l0,0c-0.4,8.3-7.3,14.8-15.5,14.8l-30.5-1.8l-1.3-13.9
		l23.2-5.6l-9-16.9L466.6,410.5z"/>
	<path class="st17" d="M454.7,433c0,0.1,1.1-0.1,2.8-0.1c2.2,0,4.4,0.4,6.4,1.1c2.1,0.7,4.1,1.8,5.7,3.1c1.3,1.1,1.9,1.9,2,1.8
		c0.1-0.1-0.1-0.2-0.4-0.6c-0.4-0.5-0.9-1-1.4-1.5c-1.7-1.5-3.7-2.6-5.8-3.3c-2.1-0.8-4.4-1.1-6.6-1c-0.7,0-1.4,0.1-2,0.2
		C455,432.9,454.7,433,454.7,433z"/>
	<path class="st16" d="M336.4,406.8c0,0-5.7,16-12.9,33.8c-0.2,0.4-0.2,0.8-0.3,1.1c-1.1,4.8,2.6,12.9,7.5,12.9l41.3-0.4v-13.5
		l-23.8-5.2l9.2-20.3L336.4,406.8z"/>
	<path class="st17" d="M329.6,439.2c0.1,0.1,0.8-0.5,2.3-1.4c3.8-2.1,8.1-3.1,12.4-2.8c1.6,0.2,2.7,0.4,2.7,0.3
		c-0.2-0.2-0.5-0.2-0.7-0.2c-0.6-0.2-1.3-0.3-1.9-0.4c-2.2-0.3-4.4-0.2-6.6,0.3c-2.1,0.5-4.2,1.4-6.1,2.5c-0.5,0.4-1.1,0.8-1.6,1.2
		C329.7,439,329.6,439.2,329.6,439.2z"/>
	<path class="st18" d="M437.5,437.8h-6c0,0-13.5-4.9-16.2-4.4c-2.5,0.4-11.6,6.5-13.4,7.7c-0.2,0.2-0.4,0.3-0.5,0.5l0,0
		c-0.4,1,0.1,2.1,1.1,2.5l0.2,0.1l-0.1,0.3c-0.1,0.4-0.2,0.7-0.2,1.1c0.1,0.7,0.7,1.3,1.4,1.2c0.5,0,0.8-0.3,1.1-0.6l-0.4,0.6
		c-0.2,0.2-0.2,0.5-0.2,0.8v0.5c0.1,0.6,0.5,1.1,1.1,1.4l0,0c0.5,0.2,1.1,0,1.5-0.4c1.1-1.3,3.7-3.8,5.4-4.1
		c1.8-0.2,3.7-0.3,5.5-0.3c0.8,0,1.5,0.5,1.8,1.2l0,0c-1,0.1-8,3.8-10.5,5.1c-0.8,0.4-1.3,1.1-1.5,2c-0.1,0.8,0.3,1.6,1.8,1.2
		c3.3-0.8,9.2-3.5,9.2-3.5s3.1-0.8,5.1,0.5c2.8,2,4.1,2.7,6.4,1.9c1.5-0.5,2.8-1.1,4.1-1.9l4.7-0.5
		C439,450.6,443.6,439.5,437.5,437.8z"/>
	<path class="st17" d="M419.7,440.1c0,0.1-1-0.2-2.5-0.4c-4.1-0.3-8.2,1.5-10.9,4.7c-1,1.2-1.5,2.1-1.5,2.1c0.1-0.2,0.2-0.5,0.3-0.6
		c0.3-0.5,0.7-1.1,1.1-1.5c2.7-3.3,6.8-5.1,11-4.7c0.6,0.1,1.2,0.2,1.8,0.3C419.3,440,419.5,440.1,419.7,440.1z"/>
	<path class="st17" d="M418.3,436.9c-0.8-0.2-1.8-0.4-2.6-0.5c-2.1,0-4.3,0.6-6.1,1.8c-1.8,1.1-3.4,2.6-4.9,4.2l-1.4,1.5
		c-0.2,0.2-0.3,0.4-0.5,0.5c0.2-0.2,0.3-0.4,0.5-0.6c0.3-0.4,0.8-0.8,1.3-1.5c1.5-1.7,3.1-3.1,4.9-4.3c1.8-1.1,4.1-1.8,6.3-1.7
		c0.7,0,1.3,0.2,1.9,0.4c0.2,0.1,0.3,0.2,0.5,0.2C418.1,436.8,418.2,436.8,418.3,436.9z"/>
	<path class="st18" d="M363.2,438.2h6c0,0,13.5-4.9,16.2-4.4c2.5,0.4,11.6,6.5,13.4,7.7c0.2,0.2,0.4,0.3,0.5,0.5l0,0
		c0.4,1-0.2,2.1-1.1,2.5l-0.2,0.1l0.1,0.3c0.1,0.4,0.2,0.7,0.2,1.1c-0.1,0.7-0.7,1.3-1.4,1.2c-0.5,0-0.8-0.3-1.1-0.7l0.4,0.6
		c0.2,0.2,0.2,0.5,0.2,0.8v0.5c-0.1,0.6-0.5,1.1-1.1,1.4l0,0c-0.5,0.2-1.1,0-1.5-0.4c-1.1-1.3-3.7-3.8-5.4-4.1
		c-1.8-0.2-3.7-0.3-5.5-0.3c-0.8,0-1.5,0.5-1.8,1.2l0,0c1,0.1,8,3.8,10.5,5.1c0.8,0.4,1.3,1.1,1.5,2c0.1,0.8-0.3,1.6-1.8,1.2
		c-3.3-0.8-9.2-3.5-9.2-3.5s-3.1-0.8-5.1,0.5c-2.8,2-4.1,2.7-6.4,1.9c-1.5-0.5-2.8-1.1-4.1-1.9l-4.7-0.5
		C361.6,451.1,357.1,440,363.2,438.2z"/>
	<path class="st17" d="M381,440.5c0,0.1,1-0.2,2.5-0.4c4.1-0.3,8.2,1.5,10.9,4.7c0.5,0.7,1.1,1.4,1.5,2.1c-0.1-0.2-0.2-0.5-0.3-0.6
		c-0.3-0.5-0.7-1.1-1.1-1.5c-2.7-3.3-6.8-5.1-11-4.7c-0.6,0.1-1.2,0.2-1.8,0.3C381.4,440.4,381.2,440.5,381,440.5z"/>
	<path class="st17" d="M382.4,437.2c0.8-0.2,1.8-0.4,2.6-0.5c2.1,0,4.3,0.6,6.1,1.8s3.4,2.6,5,4.2l1.4,1.5c0.2,0.2,0.3,0.4,0.5,0.5
		c-0.2-0.2-0.3-0.4-0.5-0.6c-0.3-0.4-0.8-0.8-1.3-1.5c-1.5-1.7-3.1-3.1-5-4.3c-1.8-1.1-4.1-1.8-6.3-1.7c-0.7,0-1.3,0.2-2,0.4
		C382.8,437.1,382.7,437.2,382.4,437.2C382.4,437.2,382.4,437.2,382.4,437.2z"/>
	<path class="st0" d="M372.6,454.7h68.6c1.9,0,3.5-1.5,3.6-3.4l2.1-47.2c0.1-2-1.5-3.8-3.4-3.8c-0.1,0-0.2,0-0.2,0h-72.5
		c-2,0-3.7,1.6-3.7,3.7c0,0.1,0,0.1,0,0.2l1.9,47.2C369,453.2,370.6,454.7,372.6,454.7z"/>
	<path class="st4" d="M372.6,454.7h-0.2c-0.2,0-0.3,0-0.5-0.1c-0.6-0.2-1.2-0.4-1.8-0.8c-0.8-0.7-1.3-1.8-1.3-2.8
		c-0.1-1.2-0.1-2.7-0.2-4.4c-0.3-6.5-0.7-16-1.1-27.7c-0.2-2.9-0.2-6-0.4-9.2c-0.1-1.6-0.2-3.2-0.2-4.9c0-0.4-0.1-0.8,0-1.2
		c0-0.5,0.2-0.8,0.3-1.2c0.4-0.8,1-1.5,1.8-1.9c0.4-0.2,0.8-0.3,1.3-0.4c0.5,0,0.8,0,1.3,0h71.2c0.6,0,1.1,0.1,1.7,0.2
		c1.1,0.4,1.9,1.3,2.3,2.5c0.2,0.5,0.2,1.1,0.2,1.7l-0.1,1.6c-0.1,1.1-0.1,2.2-0.2,3.3c-0.2,4.4-0.4,8.6-0.5,12.8
		c-0.4,8.4-0.8,16.5-1.1,24.2c-0.1,1-0.1,1.9-0.2,2.9c0,0.5,0,0.9-0.1,1.5c0,0.5-0.1,1-0.2,1.5c-0.3,0.9-1,1.8-1.8,2.2
		c-0.5,0.2-0.9,0.4-1.4,0.5s-0.9,0-1.4,0h-10.6h-19.2l-27.7-0.1h-7.5h-1.9L372.6,454.7l0.6,0.1h2h7.5l27.7-0.1h19.2h10.6
		c0.5,0,0.9,0,1.4,0c1.5-0.2,2.6-1.2,2.9-2.6c0.2-0.5,0.2-0.9,0.2-1.4c0-0.5,0-0.9,0.1-1.5c0-1,0.1-1.9,0.2-2.9
		c0.3-7.7,0.7-15.8,1.1-24.2c0.2-4.2,0.4-8.5,0.5-12.8c0.1-1.1,0.1-2.1,0.2-3.3l0.1-1.6c0.1-0.5,0-1.1-0.2-1.6
		c-0.3-1-1.1-1.8-2.1-2.2c-0.5-0.2-1.1-0.3-1.6-0.2h-1.7h-50.3h-19.4c-0.5,0-0.8,0-1.3,0c-0.4,0.1-0.8,0.2-1.1,0.4
		c-0.8,0.4-1.3,1-1.7,1.8c-0.2,0.4-0.2,0.8-0.3,1.1c0,0.4,0,0.8,0,1.2c0.1,1.7,0.2,3.3,0.2,4.9c0.2,3.1,0.2,6.2,0.4,9.2
		c0.5,11.6,0.8,21.1,1.1,27.7c0.1,1.6,0.1,3.1,0.2,4.4c0,1.1,0.5,2.1,1.2,2.8c0.5,0.5,1.1,0.7,1.7,0.8
		C372.4,454.7,372.6,454.7,372.6,454.7z"/>
	<path class="st2" d="M403.2,428.3c0,2.1,1.7,3.8,3.8,3.8c2.1,0,3.8-1.7,3.8-3.8c0-2.1-1.7-3.8-3.8-3.8l0,0
		C404.9,424.6,403.2,426.3,403.2,428.3z"/>
	<g id="freepik--Coffee--inject-18">
		<path class="st4" d="M344.5,436.8c-1.8-1.5-4.3-1.8-5.8-1.7c0-1.1,0-1.8,0-1.8h-31.6c0,0-1,20.8,15,21.6
			c7.1,0.3,11.3-2.9,13.6-6.9c1.1,0.3,2.4,0.5,3.6,0.5c1.8,0.1,3.5-0.4,5-1.4c1.1-0.8,2.4-2.4,2.4-5.4
			C346.7,439.8,345.9,438.1,344.5,436.8z M342.4,444.6c-1.4,1-3.8,0.8-5.4,0.6c0.8-2.2,1.3-4.5,1.5-6.9c1.1-0.1,2.9,0,4,0.9
			c0.7,0.6,1.1,1.6,1,2.5C343.6,442.7,343.1,443.8,342.4,444.6L342.4,444.6z"/>
		<path class="st19" d="M314.2,447.8c-2.1-2.5-3.4-5.6-3.7-8.9c0.2,0,0.5,2.1,1.5,4.6C313,446,314.3,447.7,314.2,447.8z"/>
		<path class="st19" d="M316.6,448.1c-0.5-1.5-0.9-2.9-1.1-4.4c-0.4-1.5-0.6-3-0.8-4.5c0.5,1.5,0.9,2.9,1.1,4.4
			C316.3,445.1,316.6,446.7,316.6,448.1z"/>
		<path class="st19" d="M320.5,447.8c-0.5-1.4-0.8-2.8-0.9-4.3c-0.2-1.5-0.3-2.9-0.2-4.4c0.3,1.5,0.5,2.9,0.6,4.4
			C320.2,444.9,320.3,446.4,320.5,447.8z"/>
		<path class="st19" d="M323.5,439.5c0.5,2.7,0.3,5.4-0.5,8c-0.1,0,0.2-1.8,0.3-4.1C323.5,441.4,323.5,439.5,323.5,439.5z"/>
		<path class="st19" d="M328.5,438.3c0.3,3.1-0.3,6.2-1.8,9c-0.1-0.1,0.7-1.9,1.2-4.4C328.4,440.3,328.4,438.3,328.5,438.3z"/>
		<path class="st19" d="M333.6,440.2c-0.1,1.4-0.4,2.7-1,3.8c-0.5,1.2-1.2,2.4-2.1,3.4c-0.1-0.1,0.9-1.5,1.8-3.5
			C333.1,441.9,333.6,440.2,333.6,440.2z"/>
		<path class="st4" d="M318.2,400.3c-0.3,0.3-0.6,0.6-0.8,1c-0.6,1-0.8,2.1-0.8,3.3c0.2,1.7,0.8,3.3,1.8,4.7c1,1.7,2.3,3.4,2.8,5.7
			c0.2,1.1,0.2,2.3-0.2,3.4c-0.4,1-0.9,1.9-1.6,2.7c-1.2,1.5-2.4,2.8-2.9,4.2c-0.5,1.1-0.5,2.2-0.2,3.4c0.2,0.4,0.4,0.8,0.6,1.1
			c0,0-0.1-0.1-0.2-0.2c-0.2-0.2-0.4-0.5-0.5-0.8c-0.5-1.1-0.5-2.4,0-3.5c0.5-1.5,1.7-2.8,2.9-4.4c0.6-0.8,1.1-1.7,1.5-2.6
			c0.4-1,0.4-2.1,0.2-3.1c-0.5-2.1-1.7-4-2.7-5.7c-1-1.5-1.6-3.1-1.8-4.9c-0.1-1.2,0.2-2.4,0.9-3.4
			C317.5,400.8,317.9,400.5,318.2,400.3z"/>
		<path class="st4" d="M321.8,402.8c-0.2,0.3-0.3,0.7-0.5,1.1c-0.3,1-0.2,2.1,0.1,3c0.5,1.5,1.3,2.8,2.2,4c0.5,0.8,1,1.6,1.4,2.5
			c0.4,0.9,0.6,1.9,0.7,2.9c0.2,1.9-0.2,3.9-1.1,5.6c-0.8,1.6-1.8,2.8-2.2,4.1c-0.4,1-0.3,2.1,0.2,3c0.2,0.3,0.5,0.6,0.7,0.8
			c0,0-0.1,0-0.2-0.2c-0.2-0.2-0.5-0.4-0.6-0.6c-0.5-0.9-0.6-2.1-0.3-3.1c0.4-1.3,1.4-2.6,2.2-4.1c0.8-1.7,1.1-3.5,1-5.4
			c-0.1-1-0.3-1.9-0.7-2.8c-0.4-0.8-0.8-1.6-1.3-2.4c-0.9-1.2-1.7-2.7-2.1-4.1c-0.3-1-0.3-2.1,0-3.1c0.1-0.3,0.2-0.5,0.4-0.8
			C321.7,402.9,321.8,402.8,321.8,402.8z"/>
	</g>
</g>
<g>
	<path class="st5" d="M175.7,364.2l-10.1-2.4c0,0-7.2,22.1-24.9,21.2c-14.4-0.8-14.4-15.4-14.4-15.4l-10.6,1.8
		c0,0-4.4,26.8,0.5,45.6c4.1,15.6,6.4,38.2,6.4,38.2l71.5,0.2L175.7,364.2L175.7,364.2z"/>
	<g>
		<g>
			<path class="st16" d="M130.8,443.7c-0.3-1.1,0.2-2.1,1.1-2.8c1.6-1.1,6.5-4.1,6.6-4.1s5.7-1.8,8.1-2s12.7,4.7,12.7,4.7
				s2.4,3.3,2,6.5c-0.4,3.2-2.5,3.4-2.5,3.4l-3-0.7l-3.1-0.5c0,0-6.9,1.8-8,1.5s-1.5-1.5-0.3-2.1c1.1-0.6,4.5-1.5,4.5-1.5l2.6-1.1
				l-8.4,1.1c0,0-7.1,1.4-8,1.1c-0.8-0.2-0.9-0.8-1-1.4c0,0-2.8,1.4-3.7,0.6C129.6,446,129.2,444.4,130.8,443.7z"/>
			<path class="st13" d="M149,441.8c-0.2,0-0.4,0.1-0.6,0c-0.4,0-1,0-1.7,0.1c-0.8,0-1.7,0.2-2.5,0.3c-0.5,0.2-0.9,0.3-1.4,0.5
				c-0.5,0.2-0.9,0.5-1.4,0.7c-0.5,0.2-1,0.5-1.5,0.7c-0.5,0.2-1,0.3-1.5,0.3c-0.8,0-1.7,0.1-2.5,0.3c-0.5,0.2-1,0.5-1.4,0.9
				c-0.2,0.2-0.2,0.3-0.3,0.5c0,0,0-0.1,0-0.2c0.1-0.2,0.2-0.3,0.2-0.4c0.3-0.5,0.8-0.8,1.4-1c0.8-0.2,1.7-0.3,2.5-0.3
				c1-0.1,2-0.5,2.8-1c0.5-0.2,0.9-0.5,1.5-0.7c0.5-0.2,0.9-0.4,1.5-0.5c0.8-0.2,1.7-0.3,2.5-0.3c0.8,0,1.3,0,1.7,0
				C148.5,441.8,148.7,441.8,149,441.8z"/>
			<path class="st13" d="M146.4,438.4c-0.1,0-0.1,0.1-0.2,0.1c-0.1,0.1-0.2,0.1-0.5,0.2c-0.5,0.2-1.1,0.3-1.8,0.4
				c-0.8,0.2-1.6,0.2-2.6,0.5c-1,0.3-2,0.7-2.9,1.2c-1.7,0.9-3.5,1.7-5.4,2.4c-0.7,0.2-1.3,0.5-1.7,0.5c-0.2,0.1-0.4,0.2-0.6,0.2
				c0.2-0.1,0.4-0.2,0.6-0.2l1.7-0.6c1.8-0.7,3.6-1.5,5.3-2.4c0.9-0.5,1.9-0.9,3-1.2c0.8-0.2,1.8-0.3,2.6-0.5
				c0.6-0.1,1.1-0.2,1.8-0.3C146,438.5,146.2,438.5,146.4,438.4z"/>
			<path class="st13" d="M153.2,440.3c-0.1-0.2-0.1-0.4-0.2-0.5c-0.2-0.8-0.8-1.5-1.8-1.8c-0.2-0.1-0.4-0.1-0.5-0.2
				c0,0,0.2-0.1,0.6,0c0.5,0.2,0.9,0.4,1.2,0.7c0.3,0.4,0.5,0.8,0.6,1.2C153.3,439.9,153.2,440.1,153.2,440.3z"/>
			<path class="st13" d="M157.1,445.4c0-0.2,0-0.5-0.1-0.8c-0.2-0.6-0.5-1.1-1-1.5c-0.5-0.4-1.1-0.6-1.7-0.8
				c-0.2-0.1-0.5-0.2-0.8-0.3c0.3,0,0.5,0.1,0.8,0.2c0.6,0.2,1.2,0.5,1.8,0.8c0.5,0.4,0.9,1,1,1.6
				C157.2,444.8,157.2,445.1,157.1,445.4z"/>
		</g>
		<path class="st14" d="M107,375.6c5.7-7.1,10.3-6.3,10.3-6.3l3.1,34.1l-24.9,31.5L85.3,409C85.3,409,101.8,382.2,107,375.6z"/>
		<path class="st14" d="M174.5,363.9c0,0,16.4,1.3,22.3,28.3c2.7,12.2,6.1,26.4,7,36c0.7,7-3.1,17.8-10,18.8
			c-11.3,0.9-22.8,1.8-34.1,2.8c0.4-0.9,0.7-1.9,1.1-2.8c0.1-1,0.1-2,0.2-3c-0.2-0.7-0.4-1.5-0.8-2.4c-0.4-0.8-0.8-1.5-1.1-2.1
			c0.6-0.2,1.1-0.5,1.8-0.8c6.7-2.1,13.5-4.3,20.2-6.4c-1.2-15.2-2.5-30.3-3.8-45.4L174.5,363.9z"/>
		<path class="st4" d="M114.3,388.3c0,0.2-0.1,0.2-0.1,0.4c-0.1,0.3-0.1,0.6-0.2,1.1c0,0.2-0.1,0.5-0.1,0.8c0,0.3-0.1,0.6-0.1,0.9
			c-0.1,0.7-0.2,1.5-0.2,2.3c-0.1,2-0.1,4,0,6c0.2,2.5,0.4,4.9,0.7,7.3c0.4,2.6,0.8,5,1.4,7.2c0.5,2.2,1,4.2,1.4,5.8
			c0.4,1.6,0.8,3,1,3.9l0.3,1.1c0,0.2,0.1,0.2,0.2,0.4c0-0.2,0-0.2-0.1-0.4c-0.1-0.3-0.2-0.6-0.2-1.1c-0.2-1-0.5-2.3-0.9-3.9
			c-0.4-1.6-0.8-3.6-1.3-5.8c-0.5-2.2-0.9-4.6-1.3-7.2c-0.4-2.6-0.6-5.1-0.8-7.3c-0.2-2.2-0.2-4.3,0-6c0-0.8,0.1-1.6,0.2-2.3
			c0-0.3,0.1-0.7,0.1-0.9l0.1-0.8c0.1-0.5,0.1-0.8,0.2-1.1C114.3,388.5,114.3,388.4,114.3,388.3z"/>
		<path class="st4" d="M193.8,441.6c0-0.2-0.1-0.5-0.2-0.7c-0.2-0.6-0.4-1.2-0.6-1.8c-1.8-3.9-5.4-6.6-9.7-7
			c-0.6-0.1-1.2-0.1-1.9-0.1c-0.2,0-0.5,0-0.7,0.1c0.8,0,1.7,0.1,2.5,0.2c4.1,0.5,7.7,3.1,9.5,6.9
			C193.2,440,193.6,440.8,193.8,441.6z"/>
		<path class="st4" d="M190.3,428.6c-0.2,0-0.2-0.1-0.4,0c-0.4,0-0.7,0-1.1,0.1c-1.2,0.2-2.4,0.5-3.4,0.8c-1.1,0.5-2.1,1.1-3.1,1.8
			c-0.3,0.2-0.5,0.5-0.8,0.8c-0.2,0.2-0.3,0.3-0.2,0.3c0.1,0,0.5-0.4,1.1-0.9c0.9-0.7,2-1.3,3.1-1.8c1.1-0.5,2.2-0.8,3.4-0.9
			C189.7,428.7,190.3,428.7,190.3,428.6z"/>
		<path class="st4" d="M172.2,383c0-0.2,0.1-0.5,0.1-0.7c0-0.5,0-1.1,0.1-1.9c0.2-2.1,0.5-4.3,1.1-6.4c0.6-2.1,1.4-4.1,2.4-6
			c0.4-0.8,0.7-1.3,0.9-1.7c0.2-0.2,0.2-0.4,0.3-0.6c-0.2,0.2-0.3,0.4-0.5,0.6c-0.2,0.4-0.6,1-1,1.7c-2.1,3.8-3.3,8-3.4,12.4
			c0,0.8,0,1.5,0,2C172.1,382.5,172.1,382.8,172.2,383z"/>
		<g class="st15">
			<path d="M115.1,410.9c-4.2-7.1-4.3-16.3-0.6-23.7c-1.1,7.9-0.9,15.9,0.8,23.7"/>
		</g>
		<path class="st4" d="M159.6,449.7c0,0,1.2-0.2,2.5-0.4c0.6-0.1,1.2-0.1,1.6-0.1c1.3-0.1,3.1-0.2,5.4-0.4c3.3-0.2,4.9-0.3,7-0.5
			c5.9-0.5,5-0.5,8.5-0.7c1.5-0.1,2.7-0.2,4.4-0.4c1.8-0.2,3.3-0.3,4.2-0.5c0.5-0.1,1.2-0.2,2.1-0.5c0.6-0.2,1.1-0.5,1.3-0.7
			c1.1-0.7,1.9-1.5,2.3-1.9c0.3-0.4,0.8-0.9,1.2-1.5c0.3-0.4,0.5-0.7,0.6-0.9c0.1-0.2,0.2-0.3,0.3-0.6c0.2-0.4,0.4-0.8,0.5-1
			c0-0.1,0.1-0.2,0.2-0.3c0,0.1-0.1,0.2-0.1,0.3c-0.1,0.2-0.2,0.3-0.2,0.5c-0.1,0.2-0.2,0.3-0.2,0.5c-0.8,1.5-1.6,2.7-2.3,3.3
			c-0.5,0.5-1.1,1.1-2.1,1.8c-1.1,0.7-2.3,1.1-3,1.2c-0.2,0-0.2,0-0.4,0.1c-0.8,0.2-2.1,0.3-3.8,0.5c-1.8,0.2-2.1,0.2-5.1,0.4
			c-2.9,0.2-2.1,0.2-8.6,0.7c-2,0.2-1.9,0.2-7.1,0.5c-1.9,0.2-3.5,0.2-4.6,0.3c-1.2,0.1-2.5,0.2-3.8,0.3
			C159.8,449.7,159.6,449.7,159.6,449.7z"/>
		<path class="st4" d="M172.6,391.6c0.1,0,1.8,6.7,3.8,15c2,8.3,3.7,15.1,3.6,15.1s-1.8-6.7-3.8-15S172.6,391.6,172.6,391.6z"/>
		<path class="st16" d="M132.1,372"/>
		<path class="st16" d="M137.3,428.6L137.3,428.6z"/>
		<path class="st16" d="M137.5,428.7L137.5,428.7L137.5,428.7z"/>
		<path class="st16" d="M137.3,428.6l0.2,0.1L137.3,428.6z"/>
		<path class="st16" d="M137.2,428.6L137.2,428.6L137.2,428.6z"/>
		<path class="st16" d="M137.5,428.7L137.5,428.7L137.5,428.7z"/>
		<path class="st16" d="M137.6,428.7"/>
		<path class="st16" d="M137.6,428.7L137.6,428.7z"/>
		<path class="st4" d="M159.4,449.9c0-0.2,0.1-0.2,0.2-0.4c0.1-0.2,0.2-0.2,0.2-0.4c0.1-0.2,0.2-0.3,0.2-0.5c0.5-1,0.6-2.2,0.6-3.4
			c0-0.7-0.1-1.4-0.2-2.1c-0.1-0.3-0.2-0.7-0.2-1l-0.2-0.5l-0.2-0.4c-0.5-1.1-0.9-1.7-0.8-1.8c0.2,0.2,0.2,0.3,0.3,0.5
			c0.2,0.2,0.2,0.4,0.3,0.5c0.2,0.2,0.2,0.5,0.3,0.7l0.2,0.5l0.2,0.5c0.2,0.3,0.2,0.6,0.3,1c0.2,0.8,0.2,1.5,0.3,2.1
			c0,1.2-0.2,2.4-0.7,3.4c-0.2,0.2-0.2,0.4-0.2,0.5c0,0.2-0.2,0.2-0.2,0.4C159.5,449.6,159.5,449.7,159.4,449.9z"/>
		<path class="st0" d="M54.5,406.3l9.6,46.8h82.8c0.9,0,1.7-0.8,1.7-1.7l0,0l0,0c0-0.9-0.8-1.6-1.7-1.6h-16.7l-8.8-43.5
			c-0.2-0.8-0.9-1.5-1.8-1.5l-63.3-0.7c-1,0-1.8,0.8-1.8,1.8C54.5,406.1,54.5,406.1,54.5,406.3z"/>
		<path class="st4" d="M54.5,406.3c0-0.1,0-0.1,0-0.2c0-0.2,0-0.3,0-0.4c0.1-0.5,0.4-1.1,0.8-1.4c0.2-0.1,0.4-0.2,0.5-0.2
			c0.2-0.1,0.5-0.1,0.7,0h1.5h3.8l23.9,0.2l16.7,0.2l9.3,0.1l4.9,0.1h2.5c0.2,0,0.4,0,0.6,0s0.5,0.1,0.6,0.2c0.4,0.2,0.7,0.5,0.9,1
			c0.1,0.2,0.2,0.4,0.2,0.6l0.2,0.6c0.1,0.4,0.2,0.8,0.2,1.2c0.2,0.8,0.3,1.7,0.5,2.5c0.3,1.7,0.7,3.4,1.1,5.2
			c0.7,3.5,1.5,7.1,2.2,10.8c1.5,7.4,3.1,14.9,4.7,22.8l-0.1-0.1h16.2c0.2,0,0.5,0,0.6,0c0.5,0.1,0.8,0.4,1.1,0.7
			c0.5,0.8,0.4,1.9-0.5,2.5c-0.1,0-0.1,0.1-0.2,0.1c-0.2,0.2-0.5,0.2-0.8,0.2h-43.9H64.1H64v-0.1c-2.9-14.4-5.3-26.1-6.9-34.2
			c-0.8-4.1-1.5-7.2-1.9-9.3c-0.2-1.1-0.4-1.9-0.5-2.5C54.7,406.4,54.6,406.2,54.5,406.3l0.2,0.8l0.5,2.5l1.9,9.3
			c1.7,8.1,4.1,19.8,7,34.2l-0.1-0.1h38.8h44c0.8,0.1,1.6-0.5,1.7-1.4c0.1-0.8-0.5-1.6-1.4-1.7c-0.2,0-0.4,0-0.6,0H130v-0.1
			c-1.6-7.9-3.1-15.5-4.7-22.8l-2.1-10.8c-0.4-1.8-0.7-3.5-1.1-5.2c-0.2-0.8-0.3-1.7-0.5-2.5c-0.1-0.5-0.2-0.8-0.2-1.3l-0.2-0.6
			c0-0.2-0.1-0.4-0.2-0.6c-0.2-0.5-0.8-0.9-1.4-1c-0.2,0-0.4,0-0.6,0h-2.5l-4.9-0.1l-9.3-0.1l-16.7-0.2l-23.9-0.3H58h-1.5
			c-0.2,0-0.5,0-0.6,0c-0.2,0.1-0.4,0.1-0.5,0.2c-0.5,0.3-0.8,0.8-0.8,1.3C54.5,405.9,54.5,406.1,54.5,406.3z"/>
		<path class="st2" d="M92.7,427.7c0,1.5-1.2,2.8-2.8,2.8s-2.8-1.2-2.8-2.8c0-1.5,1.2-2.8,2.8-2.8S92.7,426.2,92.7,427.7L92.7,427.7
			z"/>
		<path class="st4" d="M54.6,406.7H59l11.9,0.1l39.1,0.3l5.7,0.1h1.4c0.2,0,0.5,0,0.7,0c0.2,0.1,0.5,0.2,0.7,0.3
			c0.4,0.2,0.7,0.7,0.8,1.1c0.1,0.5,0.2,0.9,0.2,1.3c0.7,3.5,1.4,6.9,2,10.2c1.3,6.5,2.5,12.3,3.4,17.2c0.9,4.9,1.8,8.9,2.3,11.6
			c0.2,1.4,0.5,2.5,0.6,3.1c0.1,0.4,0.2,0.6,0.2,0.8l0.1,0.3c0-0.1-0.1-0.2-0.1-0.3c-0.1-0.2-0.1-0.5-0.2-0.8
			c-0.2-0.8-0.4-1.8-0.6-3.1c-0.5-2.8-1.4-6.7-2.4-11.6s-2.1-10.7-3.4-17.2c-0.6-3.2-1.3-6.7-2.1-10.2c-0.1-0.5-0.2-0.9-0.2-1.3
			c-0.2-0.4-0.4-0.8-0.8-1c-0.2-0.2-0.4-0.2-0.6-0.2s-0.5-0.1-0.7,0h-1.4l-5.7-0.1L70.7,407l-11.9-0.2l-3.2-0.1h-0.8L54.6,406.7z"/>
		<g>
			<path class="st14" d="M189.1,384.1c-1.7-9.4-12-15-15.5-18.2l5.1,6.9c2.6,10.9,3.6,22.1,3,33.2c-0.1,1.2,0.1,2.8,0.9,3.1
				c0.3,0,0.6-0.1,0.8-0.3c3.1-1.9,5.1-6.4,5.4-11C189.5,393.2,189.9,388.4,189.1,384.1z"/>
			<path class="st14" d="M134.3,331.5c-1-9.8-2-12.3-2.5-20c-0.2-2.7-0.3-6.9,0.2-12c-2.9,1.6-5.7,3.2-8.7,4.9
				c-1.2,1.5-2.8,3.9-3.8,7.2c-0.3,1.1-0.9,3.4-0.8,8.7c0,1.8,0.2,5.4,1.5,12.7c1.8,10.5,3.4,13.1,4.7,14.6c0.9,1.2,3.4,4.4,5.5,3.8
				c2.2-0.5,2.9-4.8,3.5-8.6C134.6,337.6,134.4,333.5,134.3,331.5z"/>
			<path class="st16" d="M121.8,318.4c0-7,4.1-15.7,11-15.4l21.9,4.1c2.1,0.1,3.8,1.8,3.9,3.9l0.8,52.1h0.2c0,0-7.6,19.2-22.1,15.5
				c-2.9-0.7-0.8-7.9-1.5-11h-0.2c0-0.4-0.1-0.8-0.1-1.1c-0.5-2.4-0.6-4.7-0.5-7.1l0,0c-0.3-4.2-0.4-5.9-0.4-5.9s-9-0.9-11.5-12.4
				C122,335.6,121.8,326.2,121.8,318.4z"/>
			<path class="st4" d="M123.4,310.5c4.2-1.5,7.8-1.9,10.3-2c4.4-0.2,7.8-0.2,11.4,1.5c0.8,0.4,1.9,1,2.3,0.6c0.5-0.5-0.9-3-2.8-4.5
				c-2.8-2.4-6.5-2.3-9.3-2.2c-2,0.1-5.2,0.4-9,2c-0.5,0.5-1.1,1.2-1.7,2.1C124.1,308.9,123.7,309.8,123.4,310.5z"/>
			<path class="st4" d="M125.7,327.5c0.1,0.8,0.7,1.5,1.5,1.4c0.8,0,1.5-0.6,1.5-1.4c0,0,0,0,0-0.1c-0.1-0.8-0.7-1.5-1.5-1.4
				C126.3,326.1,125.7,326.7,125.7,327.5C125.7,327.5,125.7,327.5,125.7,327.5z"/>
			<path class="st4" d="M140,326.7c0.1,0.8,0.7,1.5,1.5,1.4c0.8,0,1.5-0.6,1.5-1.4c0,0,0,0,0-0.1c-0.1-0.8-0.7-1.5-1.5-1.4
				C140.7,325.2,140,325.9,140,326.7L140,326.7z"/>
			<path class="st4" d="M134.7,334.7c0-0.1-1-0.2-2.6-0.3c-0.4,0-0.8-0.1-0.9-0.4c-0.1-0.4,0-0.8,0.2-1.2c0.3-1,0.7-2.1,1-3.1
				c1.4-4.5,2.4-8.2,2.2-8.3s-1.5,3.5-2.9,8l-1,3.2c-0.2,0.5-0.3,1.1-0.1,1.6c0.2,0.3,0.4,0.5,0.7,0.5c0.2,0.1,0.5,0.1,0.7,0.1
				C133.7,334.9,134.7,334.8,134.7,334.7z"/>
			<path class="st13" d="M134.8,353.7c5.4-0.2,10.7-2,15.2-5.1c0,0-3.4,8.3-15,7.9L134.8,353.7z"/>
			<path class="st13" d="M135.6,338.5c0.5-0.8,1.5-1.3,2.5-1.2c0.7,0,1.4,0.3,1.8,0.8s0.5,1.3,0.2,1.9c-0.5,0.6-1.3,0.8-2.1,0.7
				c-0.8-0.2-1.5-0.6-2.1-1.1c-0.2-0.2-0.4-0.2-0.5-0.5S135.5,338.7,135.6,338.5"/>
			<path class="st4" d="M139.5,335.5c-0.2,0-0.2,1.8-1.5,3.1c-1.4,1.3-3.3,1.2-3.3,1.5c0,0.1,0.5,0.3,1.2,0.3c1-0.1,2-0.5,2.8-1.1
				c0.7-0.7,1.1-1.6,1.2-2.5C139.8,336,139.6,335.5,139.5,335.5z"/>
			<path class="st4" d="M139,316.5c0.2,0.5,1.8,0.2,3.7,0.2c1.9,0.1,3.4,0.5,3.7,0.2c0.1-0.2-0.2-0.6-0.8-1
				c-1.7-0.9-3.8-1.1-5.6-0.3C139.3,316,139,316.3,139,316.5z"/>
			<path class="st4" d="M124.4,318.6c0.3,0.4,1.4-0.1,2.7-0.2c1.3-0.1,2.5,0.1,2.7-0.3c0.1-0.2-0.1-0.5-0.6-0.8
				c-1.4-0.8-3.1-0.6-4.4,0.4C124.4,318,124.3,318.3,124.4,318.6z"/>
			<path class="st14" d="M167.2,306.9c-3-4.2-5.9-7.7-11-10.1c-10.3-4.9-24.1-2-31.3,5.7c-0.8,0.8-1.3,1.5-1.7,2
				c-0.5,1-0.4,1.4-0.2,1.5c0.5,0.6,2.3,0.2,3.5-0.3c0.5-0.2,1.1-0.5,1.9-0.7c1.8-0.5,6.4-1.9,11.5,0.2c4.4,1.8,6.7,5.2,7.5,6.4
				c0.2,0.3,0.4,0.6,0.5,0.8c2,3.1,3.1,7.2,3.5,8.5c0.2,0.9,0.5,1.7,0.5,1.8c0.1,0.2,0.6,2.8,0.8,5.8c0.2,2.6,0.4,7.1-1.1,12.4
				c-1.1,3.6-1.8,5.9-4,8.1c-3.5,3.4-8,3.7-9.4,3.8c-5.7,0.3-9.9-2.5-11.1-3.4c3.5,3.7,7,7.3,10.6,11l15.9,0.1l18.6,0.1
				c0,0,2.1-1.9,4.1-6.8C181,341.2,175.2,318.1,167.2,306.9z"/>
			<path class="st14" d="M180.4,372.5c0,0-4-8.2-9.2-12.7c-5.2-4.5-8.4-4.4-15.9-3.8c-7.4,0.6-17.8,1.8-20.4,1.1l-0.2-3.4
				c-1.2-0.2-6.3-2.6-7.2-4.1c-1.8,1.9-2.7,4-2.2,6.1l-1.2,0.5c-3.8,1.4-5.8,5.3-4.9,9.2c0.5,1.8,1.6,2.8,3.8,3.3
				c9,1.5,32.9-4.9,40.1-4.9C170.3,363.6,180.4,372.5,180.4,372.5z"/>
			<path class="st4" d="M122.1,368.5c0.2,0,0.4,0,0.6,0c0.4,0.1,1,0.1,1.8,0.2c2.1,0.2,4.4,0.2,6.5,0.1c3.2-0.2,6.4-0.6,9.6-1.3
				c1.8-0.4,3.7-0.8,5.6-1.5l5.9-1.8c4.1-1.2,8.1-2.1,11.8-1.7c3.3,0.3,6.4,1.3,9.3,3c1.9,1.1,3.6,2.5,5.1,4.1
				c0.4,0.5,0.8,0.9,1.1,1.4c0.2,0.2,0.2,0.3,0.4,0.5c-0.2-0.2-0.3-0.3-0.4-0.5c-0.2-0.3-0.7-0.8-1.1-1.3c-3.8-4-8.8-6.4-14.2-6.9
				c-3.6-0.3-7.7,0.5-11.6,1.7c-2,0.6-4,1.2-5.9,1.8c-1.9,0.6-3.8,1-5.6,1.4c-3.2,0.7-6.4,1.1-9.7,1.2c-2.2,0.1-4.4,0-6.6-0.2
				c-0.8-0.1-1.4-0.2-1.8-0.2C122.6,368.6,122.4,368.5,122.1,368.5z"/>
			<path class="st14" d="M180.8,369.7c-9-11.7-26.3-16.2-39.9-10.3l-14.3,3.1c-3.8,0.7-9.8,1.9-10.1,5.4c-0.2,3.7,0.5,7.4,2.3,10.6
				c3.3,5.8,1.5,13.6,4.8,19.4c1.6,2.8,3.1,5.5,5.4,7.7c2.3,2.1,5.4,3.7,8.6,3.4c3.5-0.4,6.4-2.9,8.6-5.7c4.7-5.9,7.7-13,12.3-19.1
				c4.4-6.1,9.7-10.6,19.2-11.2c1.7-0.1,6.6,2.1,6.6,2.1C184.4,374.5,181.3,370.4,180.8,369.7z"/>
			<g class="st15">
				<path d="M161.6,362.8c-6.2,0-12.3,3-18.4,4.3c-24.3,5.4-24.3-3.8-24.3-3.8l0,0c-0.8,4.3,3.3,6.3,7.5,7.3
					c8.1,1.9,16.8,2.9,22.7,1c4.7-1.5,9.7-2.6,14.4-4c4.7-1.4,11.6-0.8,15.2,2.5C175.5,364.8,167.8,362.8,161.6,362.8z"/>
			</g>
			<g class="st15">
				<path d="M130,362.2c0.6,1.3,1.7,2.2,3.1,2.7c1.4,0.4,2.8,0.5,4.1,0.4c5.1-0.4,10-2.1,14.8-3.8c-3.8-0.2-7.6,1.2-11.3,2
					c-3.8,0.8-8,0.8-11.1-1.5"/>
			</g>
			<path d="M182.1,373.6C182.1,373.6,182,373.6,182.1,373.6l-0.4-0.5c-0.2-0.3-0.7-0.8-1.2-1.3c-1.5-1.5-3.3-2.8-5.3-3.6
				c-1.4-0.5-2.8-0.8-4.4-0.9c-1.7-0.2-3.4-0.1-5.1,0.2c-3.6,0.5-7.4,1.8-11.4,2.9c-4,1.1-7.9,2.4-11.5,2.5
				c-3.2,0.2-6.4-0.1-9.6-0.7c-2.7-0.5-4.8-1.1-6.4-1.5l-1.7-0.5l-0.5-0.2l-0.2-0.1c0.1,0,0.1,0,0.2,0l0.5,0.1l1.7,0.4
				c1.5,0.3,3.7,0.8,6.4,1.4c3.1,0.5,6.4,0.8,9.6,0.6c3.6-0.2,7.4-1.4,11.5-2.5c4-1.2,7.8-2.4,11.4-2.9c1.7-0.2,3.4-0.3,5.1-0.2
				c3.8,0.2,7.2,1.9,9.7,4.7c0.5,0.5,0.9,1,1.1,1.3l0.3,0.4L182.1,373.6z"/>
			<path d="M173,361.5L173,361.5l-0.4-0.3c-0.2-0.2-0.6-0.5-1.1-1c-1.5-1.1-3-2.1-4.7-2.9c-2.5-1.1-5.1-1.9-7.7-2.2
				c-3.3-0.4-6.7-0.4-10,0c-3.3,0.5-6.6,1.1-9.8,1.8c-1.5,0.3-2.9,0.5-4.4,0.4c-1.3-0.1-2.5-0.5-3.6-1.3c-0.8-0.6-1.5-1.5-2.1-2.3
				c-0.5-0.7-0.8-1.4-1.1-2.1c-0.2-0.6-0.4-1.1-0.5-1.4l-0.1-0.4c0-0.1,0-0.1,0-0.2c0,0,0,0.1,0.1,0.2c0,0.1,0.1,0.2,0.2,0.4
				c0.2,0.3,0.3,0.8,0.5,1.4c0.3,0.7,0.7,1.4,1.1,2.1c0.5,0.8,1.3,1.6,2.1,2.2c1,0.7,2.2,1.1,3.5,1.2c1.5,0.1,2.9,0,4.3-0.4
				c3.2-0.8,6.5-1.4,9.8-1.8c3.3-0.5,6.7-0.5,10,0c2.7,0.4,5.4,1.1,7.8,2.3c1.7,0.8,3.2,1.8,4.6,3c0.4,0.3,0.8,0.7,1.1,1l0.2,0.3
				C173,361.4,173,361.5,173,361.5z"/>
			<path d="M170.1,361.2h-0.2l-0.4-0.1l-1.4-0.2c-1.8-0.2-3.4-0.5-5.2-0.5c-2.6-0.2-5.2-0.1-7.7,0.2c-3.1,0.5-6.3,1.1-9.3,1.8
				c-3.3,0.8-6.4,1.5-9.4,1.5c-1.4,0-2.8-0.2-4.1-0.5c-1.1-0.3-2.3-0.9-3.2-1.8c-1.3-1.1-2.4-2.6-3.1-4.1c-0.3-0.6-0.5-1.1-0.7-1.8
				l0.1,0.1l0.2,0.4c0.2,0.3,0.3,0.8,0.6,1.3c0.8,1.5,1.9,2.9,3.2,4.1c0.9,0.8,2,1.4,3.1,1.7c1.3,0.3,2.7,0.5,4.1,0.5
				c2.9,0,6.1-0.7,9.4-1.5c3.1-0.8,6.2-1.4,9.4-1.8c2.6-0.3,5.2-0.3,7.8-0.2c1.8,0.1,3.5,0.3,5.2,0.6c0.6,0.1,1.1,0.2,1.4,0.3
				L170.1,361.2C170,361.2,170.1,361.2,170.1,361.2z"/>
			<path d="M170.6,339c-0.1,0.3-0.1,0.5-0.2,0.8s-0.2,0.6-0.3,1c-0.2,0.4-0.2,0.8-0.5,1.2c-0.2,0.5-0.4,0.9-0.7,1.5
				c-0.2,0.5-0.5,1.1-0.8,1.6c-1.5,2.5-3.3,4.6-5.5,6.3c-0.5,0.4-1,0.8-1.5,1.1c-0.5,0.3-0.9,0.6-1.4,0.8c-0.5,0.2-0.8,0.5-1.1,0.6
				c-0.3,0.2-0.6,0.3-0.9,0.4c-0.2,0.2-0.5,0.2-0.8,0.3c0.2-0.2,0.5-0.3,0.8-0.4c0.2-0.1,0.5-0.2,0.9-0.5c0.3-0.2,0.8-0.4,1.1-0.6
				c0.4-0.2,0.8-0.5,1.3-0.8s0.9-0.7,1.5-1.1c2.1-1.8,4.1-3.9,5.5-6.3c0.3-0.5,0.6-1.1,0.9-1.6c0.2-0.5,0.5-1,0.7-1.5
				c0.2-0.5,0.3-0.8,0.5-1.2c0.2-0.4,0.2-0.7,0.3-0.9C170.3,339.6,170.4,339.3,170.6,339z"/>
			<path d="M169.8,368.5c-0.2,0-0.2,0-0.4,0l-0.5-0.1c-0.2,0-0.4,0-0.7,0c-1.4,0-2.8,0.2-4.1,0.6c-0.9,0.3-1.8,0.7-2.7,1.1
				c-1,0.5-1.9,1.1-2.8,1.7c-1.9,1.3-4,2.9-6.1,4.5l-11.1,8.3l-3.4,2.5l-0.9,0.6c-0.1,0.1-0.2,0.2-0.3,0.2c0.1-0.1,0.2-0.2,0.3-0.2
				l0.9-0.7l3.4-2.5l11.1-8.3c2.1-1.6,4.2-3.2,6.2-4.5c0.9-0.6,1.9-1.1,2.9-1.7c0.8-0.5,1.8-0.8,2.7-1.1c1.4-0.5,2.8-0.6,4.1-0.5
				c0.2,0,0.5,0,0.7,0.1l0.5,0.1C169.6,368.4,169.6,368.4,169.8,368.5z"/>
			<path d="M185.7,383.6c-0.1-0.2-0.2-0.5-0.2-0.7c-0.2-0.5-0.3-1.1-0.5-1.9c-0.2-0.9-0.6-1.8-1-2.8c-0.5-1.1-1.1-2.1-2-2.9
				c-0.8-0.8-1.8-1.5-3-1.8c-0.9-0.2-1.9-0.3-2.9-0.2c-0.9,0.1-1.8,0.2-2.7,0.5c0.1,0,0.1-0.1,0.2-0.1c0.2-0.1,0.3-0.1,0.5-0.2
				c0.6-0.2,1.3-0.3,2-0.4c1-0.2,2-0.1,3,0.2c1.1,0.3,2.2,1,3.1,1.8c0.8,0.8,1.5,1.9,2.1,3c0.4,0.9,0.8,1.8,1,2.8
				c0.2,0.8,0.4,1.5,0.5,1.9C185.7,383.2,185.7,383.4,185.7,383.6z"/>
			<path d="M156.2,306.6c0.3,0.4,0.6,0.8,0.8,1.1c0.3,0.5,0.6,0.9,0.9,1.4c0.3,0.5,0.8,1.1,1.1,1.9c0.4,0.8,0.8,1.5,1.1,2.5
				s0.8,1.8,1.1,2.8c1.5,4.4,2.1,9.2,1.9,14c-0.1,1.1-0.1,2.1-0.2,3.1c-0.2,1-0.3,1.8-0.5,2.7c-0.2,0.8-0.4,1.5-0.5,2.2
				c-0.2,0.5-0.3,1.1-0.5,1.6c-0.2,0.5-0.3,0.9-0.5,1.4c0.1-0.5,0.2-0.9,0.3-1.4s0.3-1,0.4-1.7c0.2-0.7,0.3-1.4,0.5-2.2
				c0.1-0.8,0.3-1.7,0.4-2.7c0.1-1,0.2-2,0.2-3.1c0.2-4.7-0.5-9.4-1.9-13.9c-0.4-1-0.7-2-1.1-2.8s-0.7-1.7-1.1-2.5
				c-0.4-0.8-0.7-1.4-1-1.9c-0.3-0.6-0.6-1.1-0.8-1.4C156.6,307.5,156.3,307,156.2,306.6z"/>
		</g>
	</g>
	<path d="M116.4,367.2c-0.2,1.2-0.2,2.2-0.2,2.9c0,0,0.2,2.8,1.2,5.8c0.8,2.1,1.1,2.1,2,4.2c0.8,2.1,1.1,4.1,1.2,4.7
		c0.2,1.1,0.1,1.1,0.3,3.2c0.3,3.1,0.5,4.6,0.8,6.1c0.5,1.8,1.1,3.1,1.8,4.5c1.5,2.8,3.2,6.1,6.8,8.3c1.3,0.8,3.6,2.2,6.5,2.1
		c4.2-0.2,7.1-3.5,10.1-7c2.5-2.9,2.5-3.8,7.4-11.7c4.2-6.9,5.6-8.3,6.2-9c4-4.3,8.4-6.1,9.7-6.7c0.8-0.3,1.4-0.5,1.8-0.7
		c-0.1,0-0.2,0.1-0.3,0.1c-0.2,0.1-0.4,0.1-0.8,0.2c-0.2,0.1-0.6,0.2-1.1,0.5c-0.5,0.2-0.8,0.4-1.1,0.5c-1.1,0.6-1.8,0.9-2.7,1.5
		c-0.7,0.5-1.1,0.8-1.6,1.1c-0.2,0.2-1.4,1-2.5,1.9c-0.5,0.5-1.7,1.5-3.4,3.8c-1.5,2-2.5,3.6-4.4,6.7c-0.8,1.4-0.7,1.1-2.2,3.8
		c-2.1,3.4-3.1,5.1-3.9,6.3c-0.3,0.4-1.7,2.4-3.8,4.5c-0.9,0.9-1.5,1.5-2.4,2c-0.5,0.4-1.7,1.1-3.2,1.5c-2.5,0.6-4.5,0-5.4-0.3
		c-3.2-1.1-5.1-3.4-6.2-4.7c-0.4-0.5-0.8-1.1-1.5-2.1c-1.7-2.5-2.8-4.3-3.4-6.7c-0.1-0.3-0.3-1.3-0.5-2.5c-0.2-1.2-0.3-2-0.3-2.3
		c0-0.5,0-0.5-0.1-1.1c-0.1-1.2-0.2-2.1-0.3-3c0-0.2-0.2-1.5-0.4-2.5c-0.4-1.8-0.8-2.6-1.8-4.9c-1.1-2.9-1.8-4.4-2-5.9
		c-0.1-0.5-0.3-2.2-0.4-4.5C116.4,367.5,116.4,367.4,116.4,367.2z"/>
</g>
</svg>
